<svg width="104" height="104" viewBox="0 0 104 104" fill="none" xmlns="http://www.w3.org/2000/svg">
<path d="M87.4463 44.1566C84.3294 43.5926 81.1671 43.317 77.9996 43.3333C76.1796 43.3333 74.403 43.3333 72.6263 43.68C70.4145 40.7284 67.5912 38.2895 64.3496 36.53C67.134 33.4891 68.6798 29.5164 68.683 25.3933C68.683 20.9571 66.9207 16.7026 63.7838 13.5658C60.647 10.4289 56.3925 8.66663 51.9563 8.66663C47.5201 8.66663 43.2656 10.4289 40.1288 13.5658C36.9919 16.7026 35.2296 20.9571 35.2296 25.3933C35.2328 29.5164 36.7786 33.4891 39.563 36.53C36.3407 38.2986 33.522 40.7189 31.2863 43.6366C29.5963 43.3333 27.8196 43.3333 25.9996 43.3333C22.8295 43.3456 19.6672 43.6502 16.553 44.2433C15.5435 44.4279 14.6323 44.9647 13.9816 45.7583C13.3309 46.5518 12.9829 47.5505 12.9996 48.5766V84.3266C12.9986 84.9632 13.1378 85.5923 13.4075 86.169C13.6771 86.7457 14.0705 87.2559 14.5596 87.6633C15.0457 88.0732 15.616 88.371 16.2301 88.5358C16.8442 88.7005 17.487 88.7281 18.113 88.6166C20.7061 88.0519 23.3466 87.7327 25.9996 87.6633C34.3937 87.6541 42.6057 90.1102 49.6163 94.7266L50.1796 94.9433C50.7544 95.1927 51.3731 95.3253 51.9996 95.3333C52.4132 95.3281 52.8231 95.2549 53.213 95.1166H53.5163L54.0796 94.9C61.157 90.165 69.4844 87.6456 77.9996 87.6633C80.6472 87.6756 83.2877 87.9368 85.8863 88.4433C86.5123 88.5548 87.1551 88.5272 87.7692 88.3624C88.3833 88.1977 88.9536 87.8998 89.4396 87.49C89.9288 87.0825 90.3222 86.5723 90.5918 85.9956C90.8614 85.4189 91.0007 84.7899 90.9996 84.1533V48.4033C90.9959 47.3921 90.6387 46.414 89.9897 45.6384C89.3408 44.8628 88.441 44.3386 87.4463 44.1566ZM51.9996 17.3333C54.0296 17.4824 55.9279 18.3941 57.3134 19.8851C58.699 21.3762 59.469 23.3362 59.469 25.3716C59.469 27.407 58.699 29.3671 57.3134 30.8581C55.9279 32.3492 54.0296 33.2608 51.9996 33.41C49.9697 33.2608 48.0714 32.3492 46.6858 30.8581C45.3003 29.3671 44.5302 27.407 44.5302 25.3716C44.5302 23.3362 45.3003 21.3762 46.6858 19.8851C48.0714 18.3941 49.9697 17.4824 51.9996 17.3333ZM47.6663 83.7633C40.8746 80.6239 33.4818 78.9975 25.9996 78.9966C24.5696 78.9966 23.1396 78.9966 21.6663 79.2133V52C25.3001 51.5935 28.9715 51.6663 32.5863 52.2166H33.063C38.2266 53.1656 43.1747 55.045 47.6663 57.7633V83.7633ZM51.9996 50.2666C50.0727 49.155 48.0751 48.1707 46.0196 47.32H45.7596C44.3296 46.7566 42.8996 46.1933 41.4263 45.76C44.435 43.3652 48.1546 42.039 51.9996 41.99C55.8345 42.0143 59.553 43.3097 62.573 45.6733C58.8944 46.8218 55.3496 48.3617 51.9996 50.2666ZM82.333 79.2133C73.4351 78.3193 64.4599 79.8152 56.333 83.5466V57.5466C60.8327 54.8981 65.7839 53.1057 70.9363 52.26H71.803C75.2869 51.7174 78.8265 51.63 82.333 52V79.2133Z" fill="#21D7C1"/>
</svg>
