<svg width="104" height="104" viewBox="0 0 104 104" fill="none" xmlns="http://www.w3.org/2000/svg">
<path d="M52 82.3334C52.8571 82.3334 53.6949 82.0792 54.4075 81.6031C55.1201 81.1269 55.6755 80.4501 56.0035 79.6583C56.3315 78.8665 56.4173 77.9952 56.2501 77.1546C56.0829 76.3141 55.6702 75.5419 55.0642 74.9359C54.4581 74.3299 53.686 73.9172 52.8454 73.75C52.0048 73.5828 51.1335 73.6686 50.3417 73.9966C49.5499 74.3245 48.8731 74.88 48.397 75.5926C47.9208 76.3052 47.6667 77.143 47.6667 78C47.6667 79.1493 48.1232 80.2515 48.9359 81.0642C49.7486 81.8768 50.8507 82.3334 52 82.3334ZM73.6667 82.3334C74.5237 82.3334 75.3615 82.0792 76.0742 81.6031C76.7868 81.1269 77.3422 80.4501 77.6702 79.6583C77.9981 78.8665 78.084 77.9952 77.9168 77.1546C77.7496 76.3141 77.3369 75.5419 76.7308 74.9359C76.1248 74.3299 75.3527 73.9172 74.5121 73.75C73.6715 73.5828 72.8002 73.6686 72.0084 73.9966C71.2166 74.3245 70.5398 74.88 70.0637 75.5926C69.5875 76.3052 69.3334 77.143 69.3334 78C69.3334 79.1493 69.7899 80.2515 70.6026 81.0642C71.4152 81.8768 72.5174 82.3334 73.6667 82.3334ZM73.6667 65C74.5237 65 75.3615 64.7459 76.0742 64.2697C76.7868 63.7936 77.3422 63.1168 77.6702 62.325C77.9981 61.5332 78.084 60.6619 77.9168 59.8213C77.7496 58.9807 77.3369 58.2086 76.7308 57.6026C76.1248 56.9965 75.3527 56.5838 74.5121 56.4166C73.6715 56.2494 72.8002 56.3352 72.0084 56.6632C71.2166 56.9912 70.5398 57.5466 70.0637 58.2592C69.5875 58.9718 69.3334 59.8097 69.3334 60.6667C69.3334 61.816 69.7899 62.9182 70.6026 63.7308C71.4152 64.5435 72.5174 65 73.6667 65ZM52 65C52.8571 65 53.6949 64.7459 54.4075 64.2697C55.1201 63.7936 55.6755 63.1168 56.0035 62.325C56.3315 61.5332 56.4173 60.6619 56.2501 59.8213C56.0829 58.9807 55.6702 58.2086 55.0642 57.6026C54.4581 56.9965 53.686 56.5838 52.8454 56.4166C52.0048 56.2494 51.1335 56.3352 50.3417 56.6632C49.5499 56.9912 48.8731 57.5466 48.397 58.2592C47.9208 58.9718 47.6667 59.8097 47.6667 60.6667C47.6667 61.816 48.1232 62.9182 48.9359 63.7308C49.7486 64.5435 50.8507 65 52 65ZM82.3334 13H78V8.66671C78 7.51744 77.5435 6.41524 76.7308 5.60258C75.9182 4.78992 74.816 4.33337 73.6667 4.33337C72.5174 4.33337 71.4152 4.78992 70.6026 5.60258C69.7899 6.41524 69.3334 7.51744 69.3334 8.66671V13H34.6667V8.66671C34.6667 7.51744 34.2101 6.41524 33.3975 5.60258C32.5848 4.78992 31.4826 4.33337 30.3334 4.33337C29.1841 4.33337 28.0819 4.78992 27.2692 5.60258C26.4566 6.41524 26 7.51744 26 8.66671V13H21.6667C18.2189 13 14.9123 14.3697 12.4743 16.8077C10.0363 19.2456 8.66669 22.5522 8.66669 26V86.6667C8.66669 90.1145 10.0363 93.4211 12.4743 95.8591C14.9123 98.2971 18.2189 99.6667 21.6667 99.6667H82.3334C85.7812 99.6667 89.0878 98.2971 91.5257 95.8591C93.9637 93.4211 95.3334 90.1145 95.3334 86.6667V26C95.3334 22.5522 93.9637 19.2456 91.5257 16.8077C89.0878 14.3697 85.7812 13 82.3334 13ZM86.6667 86.6667C86.6667 87.816 86.2101 88.9182 85.3975 89.7308C84.5848 90.5435 83.4826 91 82.3334 91H21.6667C20.5174 91 19.4152 90.5435 18.6026 89.7308C17.7899 88.9182 17.3334 87.816 17.3334 86.6667V47.6667H86.6667V86.6667ZM86.6667 39H17.3334V26C17.3334 24.8508 17.7899 23.7486 18.6026 22.9359C19.4152 22.1233 20.5174 21.6667 21.6667 21.6667H26V26C26 27.1493 26.4566 28.2515 27.2692 29.0642C28.0819 29.8768 29.1841 30.3334 30.3334 30.3334C31.4826 30.3334 32.5848 29.8768 33.3975 29.0642C34.2101 28.2515 34.6667 27.1493 34.6667 26V21.6667H69.3334V26C69.3334 27.1493 69.7899 28.2515 70.6026 29.0642C71.4152 29.8768 72.5174 30.3334 73.6667 30.3334C74.816 30.3334 75.9182 29.8768 76.7308 29.0642C77.5435 28.2515 78 27.1493 78 26V21.6667H82.3334C83.4826 21.6667 84.5848 22.1233 85.3975 22.9359C86.2101 23.7486 86.6667 24.8508 86.6667 26V39ZM30.3334 65C31.1904 65 32.0282 64.7459 32.7408 64.2697C33.4534 63.7936 34.0089 63.1168 34.3368 62.325C34.6648 61.5332 34.7506 60.6619 34.5834 59.8213C34.4162 58.9807 34.0035 58.2086 33.3975 57.6026C32.7915 56.9965 32.0193 56.5838 31.1787 56.4166C30.3382 56.2494 29.4669 56.3352 28.6751 56.6632C27.8832 56.9912 27.2065 57.5466 26.7303 58.2592C26.2542 58.9718 26 59.8097 26 60.6667C26 61.816 26.4566 62.9182 27.2692 63.7308C28.0819 64.5435 29.1841 65 30.3334 65ZM30.3334 82.3334C31.1904 82.3334 32.0282 82.0792 32.7408 81.6031C33.4534 81.1269 34.0089 80.4501 34.3368 79.6583C34.6648 78.8665 34.7506 77.9952 34.5834 77.1546C34.4162 76.3141 34.0035 75.5419 33.3975 74.9359C32.7915 74.3299 32.0193 73.9172 31.1787 73.75C30.3382 73.5828 29.4669 73.6686 28.6751 73.9966C27.8832 74.3245 27.2065 74.88 26.7303 75.5926C26.2542 76.3052 26 77.143 26 78C26 79.1493 26.4566 80.2515 27.2692 81.0642C28.0819 81.8768 29.1841 82.3334 30.3334 82.3334Z" fill="#21D7C1"/>
</svg>
