<svg width="251" height="54" viewBox="0 0 251 54" fill="none" xmlns="http://www.w3.org/2000/svg">
<path fill-rule="evenodd" clip-rule="evenodd" d="M37.3898 50.9248C42.2308 46.0744 44.6516 39.0984 44.6516 29.9934V23.3756H1.29385C1.57426 18.7529 3.3364 15.2153 6.58183 12.7657C9.82622 10.313 14.6061 9.08879 20.9206 9.08879C24.9193 9.08879 28.7949 9.80523 32.5489 11.2417C36.3023 12.6762 39.2663 14.2183 41.4413 15.8644H43.546V1H49.8609V53L34.9741 53C35.8363 52.3662 36.6416 51.6745 37.3898 50.9248ZM5.18754 43.5456C2.83664 41.6546 1.5215 38.6248 1.24057 34.4581H25.8138C25.7083 38.4146 24.7258 41.3911 22.8669 43.3872C21.0075 45.3838 18.1134 46.3808 14.185 46.3808C10.5361 46.3808 7.53689 45.4351 5.18754 43.5456Z" fill="#21D7C1"/>
<path d="M93.5809 33.12C93.5329 34.272 93.0769 35.208 92.2129 35.928C91.3489 36.648 90.3409 37.008 89.1889 37.008H65.4289C66.0049 39.84 67.3249 42.072 69.3889 43.704C71.4529 45.288 73.7809 46.08 76.3729 46.08C78.3409 46.08 79.8769 45.912 80.9809 45.576C82.0849 45.192 82.9489 44.808 83.5729 44.424C84.2449 43.992 84.7009 43.704 84.9409 43.56C85.8049 43.128 86.6209 42.912 87.3889 42.912C88.3969 42.912 89.2609 43.272 89.9809 43.992C90.7009 44.712 91.0609 45.552 91.0609 46.512C91.0609 47.808 90.3889 48.984 89.0449 50.04C87.7009 51.144 85.9009 52.08 83.6449 52.848C81.3889 53.616 79.1089 54 76.8049 54C72.7729 54 69.2449 53.16 66.2209 51.48C63.2449 49.8 60.9409 47.496 59.3089 44.568C57.6769 41.592 56.8609 38.256 56.8609 34.56C56.8609 30.432 57.7249 26.808 59.4529 23.688C61.1809 20.568 63.4609 18.192 66.2929 16.56C69.1249 14.88 72.1489 14.04 75.3649 14.04C78.5329 14.04 81.5089 14.904 84.2929 16.632C87.1249 18.36 89.3809 20.688 91.0609 23.616C92.7409 26.544 93.5809 29.712 93.5809 33.12ZM75.3649 21.96C69.7969 21.96 66.5089 24.576 65.5009 29.808H84.3649V29.304C84.1729 27.288 83.1889 25.56 81.4129 24.12C79.6369 22.68 77.6209 21.96 75.3649 21.96Z" fill="#333333"/>
<path d="M98.5545 47.304C98.1225 46.728 97.9065 46.008 97.9065 45.144C97.9065 43.896 98.5305 42.84 99.7785 41.976C100.45 41.544 101.146 41.328 101.866 41.328C102.874 41.328 103.834 41.784 104.746 42.696C106.186 44.184 107.674 45.288 109.21 46.008C110.794 46.728 112.69 47.088 114.898 47.088C118.642 46.944 120.514 45.528 120.514 42.84C120.514 41.448 119.866 40.392 118.57 39.672C117.322 38.952 115.354 38.232 112.666 37.512C109.882 36.744 107.602 35.976 105.826 35.208C104.098 34.44 102.586 33.288 101.29 31.752C100.042 30.168 99.4185 28.056 99.4185 25.416C99.4185 23.112 100.066 21.12 101.362 19.44C102.706 17.712 104.434 16.392 106.546 15.48C108.706 14.52 110.986 14.04 113.386 14.04C115.834 14.04 118.282 14.496 120.73 15.408C123.178 16.32 125.098 17.664 126.49 19.44C127.114 20.208 127.426 21.072 127.426 22.032C127.426 23.136 126.97 24.048 126.058 24.768C125.386 25.296 124.618 25.56 123.754 25.56C122.698 25.56 121.834 25.224 121.162 24.552C120.298 23.496 119.17 22.656 117.778 22.032C116.434 21.408 114.898 21.096 113.17 21.096C109.522 21.096 107.698 22.416 107.698 25.056C107.698 26.112 108.034 26.976 108.706 27.648C109.378 28.272 110.218 28.776 111.226 29.16C112.282 29.496 113.746 29.928 115.618 30.456C118.21 31.176 120.37 31.92 122.098 32.688C123.826 33.456 125.29 34.632 126.49 36.216C127.69 37.8 128.29 39.888 128.29 42.48C128.29 44.832 127.594 46.896 126.202 48.672C124.81 50.4 123.01 51.72 120.802 52.632C118.642 53.544 116.41 54 114.106 54C110.938 54 107.986 53.472 105.25 52.416C102.514 51.36 100.282 49.656 98.5545 47.304Z" fill="#333333"/>
<path d="M154.097 45.144C154.769 45.144 155.369 45.48 155.897 46.152C156.473 46.776 156.761 47.616 156.761 48.672C156.761 49.968 156.041 51.072 154.601 51.984C153.209 52.848 151.625 53.28 149.849 53.28C146.873 53.28 144.353 52.656 142.289 51.408C140.273 50.112 139.265 47.4 139.265 43.272V23.4H135.953C134.801 23.4 133.841 23.016 133.073 22.248C132.305 21.48 131.921 20.52 131.921 19.368C131.921 18.264 132.305 17.352 133.073 16.632C133.841 15.864 134.801 15.48 135.953 15.48H139.265V10.872C139.265 9.624 139.673 8.592 140.489 7.776C141.353 6.912 142.409 6.48 143.657 6.48C144.857 6.48 145.865 6.912 146.681 7.776C147.497 8.592 147.905 9.624 147.905 10.872V15.48H153.017C154.169 15.48 155.129 15.864 155.897 16.632C156.665 17.4 157.049 18.36 157.049 19.512C157.049 20.616 156.665 21.552 155.897 22.32C155.129 23.04 154.169 23.4 153.017 23.4H147.905V42.912C147.905 43.92 148.169 44.664 148.697 45.144C149.225 45.576 149.945 45.792 150.857 45.792C151.241 45.792 151.769 45.696 152.441 45.504C153.017 45.264 153.569 45.144 154.097 45.144Z" fill="#333333"/>
<path d="M196.158 14.04C197.406 14.04 198.438 14.448 199.254 15.264C200.07 16.08 200.478 17.136 200.478 18.432V48.888C200.478 50.136 200.07 51.192 199.254 52.056C198.438 52.872 197.406 53.28 196.158 53.28C194.91 53.28 193.878 52.872 193.062 52.056C192.294 51.24 191.886 50.208 191.838 48.96C190.638 50.352 189.006 51.552 186.942 52.56C184.926 53.52 182.79 54 180.534 54C177.222 54 174.222 53.16 171.534 51.48C168.846 49.752 166.71 47.376 165.126 44.352C163.59 41.328 162.822 37.896 162.822 34.056C162.822 30.216 163.59 26.784 165.126 23.76C166.662 20.688 168.75 18.312 171.39 16.632C174.078 14.904 177.03 14.04 180.246 14.04C182.55 14.04 184.71 14.472 186.726 15.336C188.742 16.152 190.446 17.208 191.838 18.504V18.432C191.838 17.184 192.246 16.152 193.062 15.336C193.878 14.472 194.91 14.04 196.158 14.04ZM181.614 46.08C184.734 46.08 187.278 44.952 189.246 42.696C191.214 40.392 192.198 37.512 192.198 34.056C192.198 30.6 191.214 27.72 189.246 25.416C187.278 23.112 184.734 21.96 181.614 21.96C178.542 21.96 176.022 23.112 174.054 25.416C172.086 27.72 171.102 30.6 171.102 34.056C171.102 37.512 172.062 40.392 173.982 42.696C175.95 44.952 178.494 46.08 181.614 46.08Z" fill="#333333"/>
<path d="M219.201 48.888C219.201 50.136 218.769 51.192 217.905 52.056C217.089 52.872 216.057 53.28 214.809 53.28C213.609 53.28 212.601 52.872 211.785 52.056C210.969 51.192 210.561 50.136 210.561 48.888V4.392C210.561 3.144 210.969 2.112 211.785 1.296C212.649 0.431998 213.705 0 214.953 0C216.153 0 217.161 0.431998 217.977 1.296C218.793 2.112 219.201 3.144 219.201 4.392V48.888Z" fill="#333333"/>
<path d="M247.612 45.144C248.284 45.144 248.884 45.48 249.412 46.152C249.988 46.776 250.276 47.616 250.276 48.672C250.276 49.968 249.556 51.072 248.116 51.984C246.724 52.848 245.14 53.28 243.364 53.28C240.388 53.28 237.868 52.656 235.804 51.408C233.788 50.112 232.78 47.4 232.78 43.272V23.4H229.468C228.316 23.4 227.356 23.016 226.588 22.248C225.82 21.48 225.436 20.52 225.436 19.368C225.436 18.264 225.82 17.352 226.588 16.632C227.356 15.864 228.316 15.48 229.468 15.48H232.78V10.872C232.78 9.624 233.188 8.592 234.004 7.776C234.868 6.912 235.924 6.48 237.172 6.48C238.372 6.48 239.38 6.912 240.196 7.776C241.012 8.592 241.42 9.624 241.42 10.872V15.48H246.532C247.684 15.48 248.644 15.864 249.412 16.632C250.18 17.4 250.564 18.36 250.564 19.512C250.564 20.616 250.18 21.552 249.412 22.32C248.644 23.04 247.684 23.4 246.532 23.4H241.42V42.912C241.42 43.92 241.684 44.664 242.212 45.144C242.74 45.576 243.46 45.792 244.372 45.792C244.756 45.792 245.284 45.696 245.956 45.504C246.532 45.264 247.084 45.144 247.612 45.144Z" fill="#333333"/>
</svg>
