<svg width="316" height="33" viewBox="0 0 316 33" fill="none" xmlns="http://www.w3.org/2000/svg">
<path fill-rule="evenodd" clip-rule="evenodd" d="M21.7996 30.1918C24.6697 27.3161 26.1049 23.1803 26.1049 17.7822V13.8587H0.399339C0.565586 11.1181 1.61031 9.02068 3.53443 7.56841C5.45793 6.1143 8.29181 5.38848 12.0354 5.38848C14.4062 5.38848 16.7039 5.81323 18.9295 6.66489C21.1548 7.51532 22.9121 8.42958 24.2016 9.40554H25.4494V0.592869H29.1933V31.4221L20.3673 31.4221C20.8785 31.0464 21.356 30.6363 21.7996 30.1918ZM2.70778 25.8169C1.314 24.6958 0.534291 22.8995 0.367737 20.4292H14.9365C14.8739 22.7749 14.2914 24.5396 13.1894 25.723C12.087 26.9067 10.3711 27.4978 8.04212 27.4978C5.87876 27.4978 4.10064 26.9371 2.70778 25.8169Z" fill="#21D7C1"/>
<path d="M55.1136 19.6359C55.0851 20.3189 54.8148 20.8738 54.3025 21.3007C53.7903 21.7275 53.1927 21.941 52.5097 21.941H38.4231C38.7646 23.62 39.5472 24.9433 40.7709 25.9108C41.9946 26.8499 43.3748 27.3195 44.9115 27.3195C46.0782 27.3195 46.9889 27.2199 47.6434 27.0207C48.2979 26.793 48.8102 26.5653 49.1801 26.3377C49.5786 26.0816 49.8489 25.9108 49.9912 25.8254C50.5034 25.5693 50.9872 25.4413 51.4425 25.4413C52.0401 25.4413 52.5524 25.6547 52.9793 26.0816C53.4061 26.5084 53.6196 27.0064 53.6196 27.5756C53.6196 28.344 53.2211 29.0412 52.4243 29.6672C51.6275 30.3218 50.5603 30.8767 49.2228 31.332C47.8853 31.7873 46.5336 32.015 45.1676 32.015C42.7771 32.015 40.6855 31.517 38.8927 30.521C37.1283 29.525 35.7623 28.159 34.7947 26.4231C33.8272 24.6587 33.3434 22.6809 33.3434 20.4896C33.3434 18.0422 33.8556 15.8937 34.8801 14.0439C35.9046 12.1942 37.2563 10.7855 38.9353 9.81793C40.6143 8.82191 42.4072 8.3239 44.3139 8.3239C46.1921 8.3239 47.9565 8.83614 49.607 9.86063C51.286 10.8851 52.6235 12.2653 53.6196 14.0012C54.6156 15.7372 55.1136 17.6154 55.1136 19.6359ZM44.3139 13.0194C41.0128 13.0194 39.0634 14.5704 38.4658 17.6723H49.6497V17.3735C49.5359 16.1783 48.9525 15.1538 47.8995 14.3C46.8466 13.4463 45.6514 13.0194 44.3139 13.0194Z" fill="#333333"/>
<path d="M58.0623 28.0452C57.8062 27.7037 57.6781 27.2768 57.6781 26.7645C57.6781 26.0246 58.0481 25.3986 58.788 24.8863C59.1864 24.6302 59.599 24.5022 60.0259 24.5022C60.6235 24.5022 61.1927 24.7725 61.7334 25.3132C62.5871 26.1954 63.4693 26.8499 64.3799 27.2768C65.319 27.7037 66.4431 27.9171 67.7522 27.9171C69.9719 27.8317 71.0817 26.9922 71.0817 25.3986C71.0817 24.5733 70.6976 23.9472 69.9292 23.5204C69.1893 23.0935 68.0225 22.6666 66.4289 22.2398C64.7783 21.7844 63.4266 21.3291 62.3737 20.8738C61.3492 20.4185 60.4528 19.7355 59.6844 18.8248C58.9445 17.8857 58.5745 16.6336 58.5745 15.0684C58.5745 13.7024 58.9587 12.5214 59.7271 11.5254C60.5239 10.5009 61.5484 9.71833 62.8005 9.17764C64.0811 8.60848 65.4329 8.3239 66.8558 8.3239C68.3071 8.3239 69.7585 8.59425 71.2098 9.13495C72.6611 9.67565 73.7995 10.4725 74.6247 11.5254C74.9947 11.9807 75.1797 12.493 75.1797 13.0621C75.1797 13.7167 74.9093 14.2574 74.3686 14.6842C73.9702 14.9973 73.5149 15.1538 73.0026 15.1538C72.3766 15.1538 71.8643 14.9546 71.4659 14.5562C70.9537 13.9301 70.2849 13.4321 69.4596 13.0621C68.6628 12.6922 67.7522 12.5072 66.7277 12.5072C64.5649 12.5072 63.4835 13.2898 63.4835 14.855C63.4835 15.481 63.6827 15.9933 64.0811 16.3917C64.4795 16.7616 64.9775 17.0604 65.5752 17.2881C66.2012 17.4873 67.0692 17.7434 68.1791 18.0565C69.7158 18.4833 70.9964 18.9244 72.0209 19.3798C73.0453 19.8351 73.9133 20.5323 74.6247 21.4714C75.3362 22.4105 75.6919 23.6484 75.6919 25.1851C75.6919 26.5796 75.2793 27.8033 74.454 28.8562C73.6287 29.8807 72.5615 30.6633 71.2525 31.204C69.9719 31.7447 68.6486 32.015 67.2826 32.015C65.4044 32.015 63.6543 31.702 62.0322 31.0759C60.4101 30.4498 59.0868 29.4396 58.0623 28.0452Z" fill="#333333"/>
<path d="M90.9917 26.7645C91.3902 26.7645 91.7459 26.9638 92.0589 27.3622C92.4004 27.7321 92.5712 28.2301 92.5712 28.8562C92.5712 29.6246 92.1443 30.2791 91.2906 30.8198C90.4653 31.332 89.5262 31.5881 88.4732 31.5881C86.7089 31.5881 85.2148 31.2182 83.9911 30.4783C82.7959 29.7099 82.1983 28.1021 82.1983 25.6547V13.8732H80.2347C79.5517 13.8732 78.9826 13.6455 78.5272 13.1902C78.0719 12.7349 77.8442 12.1657 77.8442 11.4827C77.8442 10.8282 78.0719 10.2875 78.5272 9.86063C78.9826 9.4053 79.5517 9.17764 80.2347 9.17764H82.1983V6.44569C82.1983 5.70579 82.4402 5.09394 82.924 4.61016C83.4362 4.09792 84.0623 3.8418 84.8022 3.8418C85.5136 3.8418 86.1112 4.09792 86.595 4.61016C87.0788 5.09394 87.3207 5.70579 87.3207 6.44569V9.17764H90.3514C91.0344 9.17764 91.6036 9.4053 92.0589 9.86063C92.5142 10.3159 92.7419 10.8851 92.7419 11.5681C92.7419 12.2226 92.5142 12.7775 92.0589 13.2329C91.6036 13.6597 91.0344 13.8732 90.3514 13.8732H87.3207V25.4413C87.3207 26.0389 87.4772 26.48 87.7902 26.7645C88.1033 27.0207 88.5301 27.1487 89.0708 27.1487C89.2985 27.1487 89.6115 27.0918 90.0099 26.978C90.3514 26.8357 90.6787 26.7645 90.9917 26.7645Z" fill="#333333"/>
<path d="M115.928 8.3239C116.668 8.3239 117.28 8.56579 117.764 9.04958C118.248 9.53336 118.49 10.1594 118.49 10.9278V28.9843C118.49 29.7242 118.248 30.3502 117.764 30.8625C117.28 31.3463 116.668 31.5881 115.928 31.5881C115.189 31.5881 114.577 31.3463 114.093 30.8625C113.638 30.3787 113.396 29.7668 113.367 29.0269C112.656 29.8522 111.688 30.5637 110.465 31.1613C109.269 31.7304 108.003 32.015 106.665 32.015C104.702 32.015 102.923 31.517 101.33 30.521C99.736 29.4965 98.4696 28.0878 97.5305 26.295C96.6198 24.5022 96.1645 22.4674 96.1645 20.1908C96.1645 17.9142 96.6198 15.8794 97.5305 14.0866C98.4411 12.2653 99.679 10.8566 101.244 9.86063C102.838 8.83614 104.588 8.3239 106.495 8.3239C107.861 8.3239 109.141 8.58002 110.336 9.09226C111.532 9.57605 112.542 10.2021 113.367 10.9705V10.9278C113.367 10.1879 113.609 9.57605 114.093 9.09226C114.577 8.58002 115.189 8.3239 115.928 8.3239ZM107.306 27.3195C109.155 27.3195 110.664 26.6507 111.831 25.3132C112.997 23.9472 113.581 22.2398 113.581 20.1908C113.581 18.1418 112.997 16.4344 111.831 15.0684C110.664 13.7024 109.155 13.0194 107.306 13.0194C105.484 13.0194 103.99 13.7024 102.824 15.0684C101.657 16.4344 101.073 18.1418 101.073 20.1908C101.073 22.2398 101.643 23.9472 102.781 25.3132C103.948 26.6507 105.456 27.3195 107.306 27.3195Z" fill="#333333"/>
<path d="M129.59 28.9843C129.59 29.7242 129.334 30.3502 128.822 30.8625C128.338 31.3463 127.726 31.5881 126.986 31.5881C126.275 31.5881 125.677 31.3463 125.193 30.8625C124.71 30.3502 124.468 29.7242 124.468 28.9843V2.60389C124.468 1.86398 124.71 1.25214 125.193 0.768358C125.706 0.256119 126.332 0 127.072 0C127.783 0 128.381 0.256119 128.864 0.768358C129.348 1.25214 129.59 1.86398 129.59 2.60389V28.9843Z" fill="#333333"/>
<path d="M146.434 26.7645C146.833 26.7645 147.189 26.9638 147.502 27.3622C147.843 27.7321 148.014 28.2301 148.014 28.8562C148.014 29.6246 147.587 30.2791 146.733 30.8198C145.908 31.332 144.969 31.5881 143.916 31.5881C142.151 31.5881 140.657 31.2182 139.434 30.4783C138.239 29.7099 137.641 28.1021 137.641 25.6547V13.8732H135.677C134.994 13.8732 134.425 13.6455 133.97 13.1902C133.515 12.7349 133.287 12.1657 133.287 11.4827C133.287 10.8282 133.515 10.2875 133.97 9.86063C134.425 9.4053 134.994 9.17764 135.677 9.17764H137.641V6.44569C137.641 5.70579 137.883 5.09394 138.367 4.61016C138.879 4.09792 139.505 3.8418 140.245 3.8418C140.956 3.8418 141.554 4.09792 142.038 4.61016C142.521 5.09394 142.763 5.70579 142.763 6.44569V9.17764H145.794C146.477 9.17764 147.046 9.4053 147.502 9.86063C147.957 10.3159 148.185 10.8851 148.185 11.5681C148.185 12.2226 147.957 12.7775 147.502 13.2329C147.046 13.6597 146.477 13.8732 145.794 13.8732H142.763V25.4413C142.763 26.0389 142.92 26.48 143.233 26.7645C143.546 27.0207 143.973 27.1487 144.514 27.1487C144.741 27.1487 145.054 27.0918 145.453 26.978C145.794 26.8357 146.121 26.7645 146.434 26.7645Z" fill="#333333"/>
<path d="M161.645 12.2606C162.3 12.2606 162.892 12.4313 163.424 12.7728C163.955 13.1048 164.372 13.5696 164.676 14.1672C164.989 14.7648 165.145 15.4431 165.145 16.202C165.145 16.9608 164.994 17.6438 164.69 18.2509C164.386 18.8485 163.969 19.3181 163.438 19.6596C162.916 19.9916 162.337 20.1576 161.702 20.1576C161.247 20.1576 160.815 20.0675 160.407 19.8872C160.009 19.6975 159.677 19.4699 159.411 19.2043V19.2896C159.411 19.5363 159.33 19.745 159.169 19.9157C159.008 20.077 158.804 20.1576 158.557 20.1576C158.311 20.1576 158.107 20.077 157.946 19.9157C157.784 19.7544 157.704 19.5458 157.704 19.2896V10.3539C157.704 10.1073 157.784 9.90331 157.946 9.74205C158.107 9.5713 158.311 9.48593 158.557 9.48593C158.804 9.48593 159.008 9.5713 159.169 9.74205C159.33 9.90331 159.411 10.1073 159.411 10.3539V13.3277C159.639 13.0432 159.957 12.7965 160.364 12.5878C160.772 12.3697 161.199 12.2606 161.645 12.2606ZM161.432 18.5924C162.039 18.5924 162.537 18.3648 162.926 17.9094C163.315 17.4541 163.509 16.885 163.509 16.202C163.509 15.519 163.315 14.9546 162.926 14.5087C162.546 14.0534 162.048 13.8257 161.432 13.8257C160.815 13.8257 160.312 14.0534 159.923 14.5087C159.534 14.9546 159.34 15.519 159.34 16.202C159.34 16.885 159.534 17.4541 159.923 17.9094C160.312 18.3648 160.815 18.5924 161.432 18.5924Z" fill="#333333"/>
<path d="M172.218 12.4029C172.464 12.4029 172.668 12.4882 172.83 12.659C172.991 12.8202 173.071 13.0242 173.071 13.2708V19.3181C173.071 20.5513 172.739 21.4477 172.075 22.0074C171.411 22.5765 170.525 22.8611 169.415 22.8611C169.092 22.8611 168.76 22.8326 168.419 22.7757C168.087 22.7283 167.816 22.6619 167.608 22.5765C167.143 22.3773 166.91 22.1022 166.91 21.7512C166.91 21.6848 166.925 21.6089 166.953 21.5236C167.01 21.3149 167.105 21.1536 167.238 21.0398C167.38 20.9354 167.532 20.8833 167.693 20.8833C167.788 20.8833 167.878 20.8975 167.963 20.926C168.03 20.9544 168.144 21.0018 168.305 21.0682C168.476 21.1346 168.651 21.1868 168.831 21.2248C169.021 21.2722 169.215 21.2959 169.415 21.2959C170.088 21.2959 170.581 21.1489 170.894 20.8548C171.217 20.5702 171.378 20.077 171.378 19.375V19.2327C170.885 19.8493 170.117 20.1576 169.073 20.1576C168.58 20.1576 168.144 20.0438 167.764 19.8161C167.385 19.579 167.091 19.2564 166.882 18.8485C166.673 18.4312 166.569 17.9569 166.569 17.4257V13.2708C166.569 13.0242 166.65 12.8202 166.811 12.659C166.972 12.4882 167.176 12.4029 167.423 12.4029C167.669 12.4029 167.873 12.4882 168.034 12.659C168.196 12.8202 168.276 13.0242 168.276 13.2708V16.9134C168.276 17.511 168.404 17.9426 168.661 18.2082C168.926 18.4644 169.31 18.5924 169.813 18.5924C170.306 18.5924 170.686 18.4501 170.951 18.1656C171.226 17.8715 171.364 17.4541 171.364 16.9134V13.2708C171.364 13.0242 171.445 12.8202 171.606 12.659C171.767 12.4882 171.971 12.4029 172.218 12.4029Z" fill="#333333"/>
<path fill-rule="evenodd" clip-rule="evenodd" d="M204.038 1.82315C206.908 4.69883 208.343 8.83466 208.343 14.2328V18.1562H182.636C182.802 20.8969 183.847 22.9943 185.771 24.4465C187.695 25.9006 190.529 26.6265 194.273 26.6265C196.644 26.6265 198.942 26.2017 201.167 25.3501C203.393 24.4996 205.15 23.5854 206.44 22.6094H207.688V31.4221H211.432V0.592871L202.605 0.592871C203.117 0.968619 203.594 1.37871 204.038 1.82315ZM184.944 6.19807C183.55 7.31919 182.771 9.11549 182.604 11.5858H197.174C197.112 9.2401 196.529 7.4754 195.427 6.29198C194.324 5.10826 192.608 4.51716 190.279 4.51716C188.116 4.51716 186.337 5.07787 184.944 6.19807Z" fill="#DE283E"/>
<path fill-rule="evenodd" clip-rule="evenodd" d="M233.132 15.195C233.132 12.4739 232.412 10.3876 230.971 8.93597C229.53 7.48435 227.378 6.75854 224.514 6.75854C221.413 6.75854 218.971 7.60997 217.189 9.31283C215.406 11.0157 214.515 13.3224 214.515 16.233C214.515 19.1715 215.456 21.4385 217.336 23.0341C219.216 24.6297 221.923 25.429 225.455 25.4319C226.709 25.4424 227.961 25.3265 229.192 25.0859C230.425 24.8242 231.632 24.4509 232.798 23.9708V19.4198H232.171C231.358 20.0009 230.469 20.4666 229.529 20.8038C228.426 21.2298 227.254 21.4479 226.073 21.4473C224.191 21.4473 222.767 21.08 221.801 20.3454C220.835 19.6108 220.311 18.5529 220.227 17.1718H233.139V15.1884L233.132 15.195ZM220.205 13.8594C220.289 12.615 220.68 11.7092 221.379 11.1421C222.078 10.5749 222.972 10.2921 224.059 10.2936C225.229 10.2936 226.093 10.5933 226.644 11.1906C227.196 11.7878 227.491 12.676 227.524 13.8594H220.205ZM264.28 6.75854C267.352 6.76001 269.726 7.59822 271.401 9.27316H271.412C273.089 10.9496 273.927 13.2379 273.927 16.1382C273.927 19.0385 273.083 21.3239 271.397 22.9945C269.71 24.665 267.341 25.5003 264.291 25.5003C261.24 25.5003 258.87 24.665 257.183 22.9945C255.496 21.3239 254.653 19.0385 254.653 16.1382C254.644 13.2174 255.489 10.9239 257.188 9.25773C258.886 7.59161 261.251 6.75854 264.28 6.75854ZM251.826 9.2427C250.611 7.62652 248.908 6.81844 246.716 6.81844C245.641 6.79625 244.574 7.01615 243.595 7.46197C242.649 7.91841 241.758 8.48265 240.941 9.14352V7.3099H235.284V31.4225H240.941V24.0703C241.625 24.4394 242.343 24.742 243.085 24.9739C243.916 25.2067 244.777 25.3152 245.639 25.2957C246.689 25.3028 247.729 25.0888 248.691 24.6676C249.661 24.235 250.529 23.6036 251.241 22.8141C252.012 21.9553 252.605 20.9515 252.987 19.8609C253.441 18.5888 253.665 17.2452 253.646 15.894C253.646 13.0745 253.038 10.8596 251.821 9.24931L251.826 9.2427ZM246.738 19.9487C246.006 20.8215 244.896 21.2578 243.41 21.2578C242.992 21.2578 242.57 21.2373 242.144 21.1961C241.731 21.1575 241.326 21.0626 240.939 20.914V12.0523C241.447 11.75 241.993 11.5152 242.561 11.3536C243.094 11.1965 243.646 11.1149 244.201 11.1112C245.453 11.1083 246.372 11.4954 246.958 12.2726C247.545 13.0499 247.838 14.2936 247.838 16.0038C247.838 17.7669 247.471 19.0819 246.738 19.9487ZM265.793 21.2975C265.323 21.4719 264.827 21.56 264.326 21.5576C263.783 21.5668 263.244 21.471 262.737 21.2755C262.267 21.0839 261.854 20.7751 261.536 20.3785C261.157 19.8731 260.89 19.2923 260.754 18.6749C260.564 17.8558 260.475 17.0165 260.488 16.1757C260.467 15.2704 260.569 14.3665 260.793 13.4892C260.946 12.877 261.227 12.304 261.615 11.8076C261.938 11.4141 262.356 11.1105 262.829 10.9261C263.297 10.7731 263.788 10.6986 264.28 10.7057C264.798 10.701 265.313 10.7914 265.799 10.9724C266.278 11.1567 266.697 11.472 267.006 11.8826C267.379 12.3833 267.646 12.9557 267.789 13.5641C267.993 14.4191 268.085 15.2969 268.064 16.1757C268.09 17.0612 267.998 17.9463 267.789 18.8071C267.627 19.3994 267.347 19.9526 266.967 20.4336C266.66 20.8279 266.251 21.1293 265.784 21.3041L265.793 21.2975ZM291.317 24.0457C290.424 24.4662 289.492 24.8005 288.536 25.0441V25.0639C287.487 25.3186 286.41 25.4422 285.33 25.432C283.909 25.4435 282.494 25.2551 281.125 24.8722C279.916 24.5376 278.788 23.9603 277.809 23.1752C276.87 22.3983 276.129 21.4077 275.648 20.2859C275.11 18.9926 274.848 17.6008 274.879 16.2C274.879 14.5559 275.153 13.1373 275.701 11.9443C276.22 10.789 277.004 9.77324 277.99 8.98009C278.97 8.22222 280.091 7.66713 281.287 7.34702C282.548 6.99898 283.849 6.82474 285.157 6.82911C286.277 6.81882 287.394 6.95063 288.481 7.2214C289.456 7.47004 290.406 7.81173 291.317 8.24179V13.0506H290.519C290.299 12.8611 290.035 12.6407 289.727 12.3895C289.373 12.1085 288.993 11.8613 288.593 11.6512C288.144 11.4129 287.673 11.2209 287.186 11.0782C286.604 10.9195 286.003 10.8453 285.401 10.8578C283.9 10.8578 282.745 11.3368 281.936 12.2947C281.127 13.2527 280.722 14.5537 280.722 16.1978C280.724 17.8933 281.139 19.1818 281.967 20.0634C282.795 20.9449 283.971 21.3857 285.495 21.3857C286.142 21.3945 286.788 21.3129 287.412 21.1433C287.906 21.0112 288.381 20.8188 288.828 20.5702C289.159 20.3766 289.473 20.1555 289.767 19.9091C290.037 19.6784 290.287 19.4529 290.519 19.2325H291.317V24.0457ZM309.478 24.9515H303.883H303.879V23.0804C303.575 23.3125 303.2 23.5902 302.751 23.9135C302.352 24.2083 301.926 24.4658 301.48 24.6826C300.925 24.9282 300.343 25.1086 299.746 25.2204C299.1 25.3461 298.444 25.4066 297.787 25.4011C296.116 25.4011 294.716 24.8868 293.588 23.8584C292.472 22.8476 291.854 21.3982 291.895 19.8914C291.895 18.6029 292.182 17.5509 292.757 16.7355C293.38 15.8795 294.226 15.211 295.201 14.8027C296.441 14.2794 297.751 13.9409 299.088 13.7977C300.636 13.5993 302.24 13.4524 303.899 13.3569V13.2622C303.913 12.288 303.521 11.6151 302.72 11.2434C301.92 10.8717 300.748 10.6858 299.203 10.6858C298.191 10.699 297.187 10.8662 296.226 11.1817C295.169 11.5123 294.412 11.7665 293.953 11.9442H293.436V7.69738C294.03 7.5387 294.999 7.35284 296.343 7.1398C297.678 6.92249 299.028 6.81122 300.381 6.80702C303.594 6.80555 305.913 7.29995 307.339 8.29022C308.765 9.2805 309.478 10.8335 309.478 12.9492V24.9515ZM300.627 21.5884C301.216 21.5836 301.799 21.4669 302.344 21.2446H302.327C302.887 21.0299 303.407 20.723 303.866 20.3366V16.6781C303.104 16.7428 302.278 16.8287 301.39 16.936C300.706 17.006 300.03 17.1343 299.368 17.3195C298.874 17.4552 298.427 17.7234 298.075 18.0952C297.768 18.4718 297.611 18.9493 297.635 19.4352C297.629 19.7319 297.661 20.0282 297.73 20.3167C297.814 20.5807 297.979 20.8117 298.2 20.9779C298.451 21.1929 298.745 21.3509 299.062 21.4407C299.575 21.5585 300.101 21.6082 300.627 21.5884Z" fill="#333333"/>
</svg>
