<svg width="251" height="128" viewBox="0 0 251 128" fill="none" xmlns="http://www.w3.org/2000/svg">
<path d="M88.0086 97.4C88.0086 97.56 87.9486 97.7 87.8286 97.82C87.7086 97.94 87.5686 98 87.4086 98C87.2352 98 87.0886 97.94 86.9686 97.82C86.8619 97.7 86.8086 97.56 86.8086 97.4V83.8C86.8086 83.64 86.8686 83.5 86.9886 83.38C87.1086 83.26 87.2486 83.2 87.4086 83.2C87.5819 83.2 87.7219 83.26 87.8286 83.38C87.9486 83.5 88.0086 83.64 88.0086 83.8V97.4ZM99.598 87.78C99.7713 87.78 99.9113 87.84 100.018 87.96C100.138 88.08 100.198 88.2267 100.198 88.4V97.4C100.198 97.56 100.138 97.7 100.018 97.82C99.898 97.94 99.758 98 99.598 98C99.4113 98 99.2646 97.94 99.158 97.82C99.0513 97.7 98.998 97.56 98.998 97.4V95.02L99.338 94.86C99.338 95.2333 99.2313 95.6133 99.018 96C98.818 96.3867 98.538 96.7467 98.178 97.08C97.818 97.4133 97.3913 97.6867 96.898 97.9C96.418 98.1 95.8913 98.2 95.318 98.2C94.4246 98.2 93.618 97.9667 92.898 97.5C92.1913 97.0333 91.6313 96.3933 91.218 95.58C90.818 94.7667 90.618 93.8533 90.618 92.84C90.618 91.8 90.8246 90.8867 91.238 90.1C91.6513 89.3 92.2113 88.6733 92.918 88.22C93.6246 87.7667 94.418 87.54 95.298 87.54C95.8713 87.54 96.4046 87.64 96.898 87.84C97.4046 88.04 97.8446 88.3133 98.218 88.66C98.5913 89.0067 98.8846 89.4067 99.098 89.86C99.3113 90.3 99.418 90.76 99.418 91.24L98.998 90.94V88.4C98.998 88.2267 99.0513 88.08 99.158 87.96C99.2646 87.84 99.4113 87.78 99.598 87.78ZM95.438 97.08C96.1446 97.08 96.7713 96.9 97.318 96.54C97.8646 96.1667 98.2913 95.66 98.598 95.02C98.918 94.3667 99.078 93.64 99.078 92.84C99.078 92.0533 98.918 91.3467 98.598 90.72C98.2913 90.0933 97.8646 89.5933 97.318 89.22C96.7713 88.8467 96.1446 88.66 95.438 88.66C94.7446 88.66 94.118 88.84 93.558 89.2C93.0113 89.56 92.578 90.0533 92.258 90.68C91.9513 91.3067 91.798 92.0267 91.798 92.84C91.798 93.64 91.9513 94.3667 92.258 95.02C92.5646 95.66 92.9913 96.1667 93.538 96.54C94.098 96.9 94.7313 97.08 95.438 97.08ZM112.498 83.28C112.698 83.28 112.911 83.3 113.138 83.34C113.378 83.38 113.585 83.4533 113.758 83.56C113.931 83.6533 114.018 83.8 114.018 84C114.018 84.1467 113.965 84.28 113.858 84.4C113.751 84.5067 113.631 84.56 113.498 84.56C113.365 84.56 113.198 84.5267 112.998 84.46C112.798 84.38 112.585 84.34 112.358 84.34C112.078 84.34 111.838 84.4067 111.638 84.54C111.438 84.66 111.285 84.84 111.178 85.08C111.071 85.3067 111.018 85.5867 111.018 85.92V97.4C111.018 97.56 110.958 97.7 110.838 97.82C110.731 97.94 110.591 98 110.418 98C110.245 98 110.098 97.94 109.978 97.82C109.871 97.7 109.818 97.56 109.818 97.4V85.92C109.818 85.0667 110.065 84.4133 110.558 83.96C111.065 83.5067 111.711 83.28 112.498 83.28ZM113.258 87.98C113.418 87.98 113.551 88.0333 113.658 88.14C113.765 88.2467 113.818 88.38 113.818 88.54C113.818 88.7 113.765 88.8333 113.658 88.94C113.551 89.0467 113.418 89.1 113.258 89.1H108.358C108.211 89.1 108.078 89.0467 107.958 88.94C107.851 88.82 107.798 88.6867 107.798 88.54C107.798 88.3667 107.851 88.2333 107.958 88.14C108.078 88.0333 108.211 87.98 108.358 87.98H113.258ZM125.289 92.88C125.289 93.8933 125.062 94.8067 124.609 95.62C124.169 96.42 123.569 97.0533 122.809 97.52C122.049 97.9733 121.189 98.2 120.229 98.2C119.282 98.2 118.422 97.9733 117.649 97.52C116.889 97.0533 116.282 96.42 115.829 95.62C115.389 94.8067 115.169 93.8933 115.169 92.88C115.169 91.8533 115.389 90.94 115.829 90.14C116.282 89.34 116.889 88.7067 117.649 88.24C118.422 87.7733 119.282 87.54 120.229 87.54C121.189 87.54 122.049 87.7733 122.809 88.24C123.569 88.7067 124.169 89.34 124.609 90.14C125.062 90.94 125.289 91.8533 125.289 92.88ZM124.089 92.88C124.089 92.0667 123.922 91.3467 123.589 90.72C123.255 90.08 122.795 89.58 122.209 89.22C121.635 88.8467 120.975 88.66 120.229 88.66C119.495 88.66 118.835 88.8467 118.249 89.22C117.675 89.58 117.215 90.08 116.869 90.72C116.535 91.3467 116.369 92.0667 116.369 92.88C116.369 93.6933 116.535 94.4133 116.869 95.04C117.215 95.6667 117.675 96.1667 118.249 96.54C118.835 96.9 119.495 97.08 120.229 97.08C120.975 97.08 121.635 96.9 122.209 96.54C122.795 96.1667 123.255 95.6667 123.589 95.04C123.922 94.4133 124.089 93.6933 124.089 92.88ZM128.343 98C128.157 98 128.01 97.94 127.903 97.82C127.797 97.7 127.743 97.56 127.743 97.4V88.44C127.743 88.28 127.797 88.14 127.903 88.02C128.023 87.9 128.17 87.84 128.343 87.84C128.517 87.84 128.657 87.9 128.763 88.02C128.883 88.14 128.943 88.28 128.943 88.44V91.44L128.643 91.5C128.683 91.0333 128.797 90.5733 128.983 90.12C129.183 89.6533 129.45 89.2267 129.783 88.84C130.117 88.4533 130.51 88.14 130.963 87.9C131.43 87.66 131.95 87.54 132.523 87.54C132.763 87.54 132.997 87.5933 133.223 87.7C133.45 87.7933 133.563 87.9533 133.563 88.18C133.563 88.38 133.51 88.5333 133.403 88.64C133.297 88.7467 133.17 88.8 133.023 88.8C132.903 88.8 132.77 88.7667 132.623 88.7C132.49 88.6333 132.31 88.6 132.083 88.6C131.71 88.6 131.337 88.7133 130.963 88.94C130.59 89.1533 130.25 89.4467 129.943 89.82C129.637 90.1933 129.39 90.6133 129.203 91.08C129.03 91.5333 128.943 91.9933 128.943 92.46V97.4C128.943 97.56 128.883 97.7 128.763 97.82C128.643 97.94 128.503 98 128.343 98ZM140.039 87.7C140.865 87.7 141.572 87.92 142.159 88.36C142.745 88.7867 143.145 89.4267 143.359 90.28L143.079 90.36L143.199 90C143.372 89.6 143.659 89.2267 144.059 88.88C144.472 88.52 144.939 88.2333 145.459 88.02C145.979 87.8067 146.505 87.7 147.039 87.7C147.879 87.7 148.552 87.88 149.059 88.24C149.579 88.6 149.952 89.0867 150.179 89.7C150.419 90.3 150.539 90.98 150.539 91.74V97.4C150.539 97.56 150.479 97.7 150.359 97.82C150.252 97.94 150.112 98 149.939 98C149.765 98 149.619 97.94 149.499 97.82C149.392 97.7 149.339 97.56 149.339 97.4V91.8C149.339 91.2533 149.252 90.7533 149.079 90.3C148.905 89.8467 148.632 89.4867 148.259 89.22C147.885 88.9533 147.385 88.82 146.759 88.82C146.212 88.82 145.685 88.9533 145.179 89.22C144.685 89.4867 144.279 89.8467 143.959 90.3C143.652 90.7533 143.499 91.2533 143.499 91.8V97.4C143.499 97.56 143.439 97.7 143.319 97.82C143.212 97.94 143.072 98 142.899 98C142.725 98 142.579 97.94 142.459 97.82C142.352 97.7 142.299 97.56 142.299 97.4V91.74C142.299 91.1933 142.219 90.7 142.059 90.26C141.899 89.82 141.639 89.4733 141.279 89.22C140.919 88.9533 140.432 88.82 139.819 88.82C139.272 88.82 138.752 88.9533 138.259 89.22C137.779 89.4733 137.385 89.82 137.079 90.26C136.785 90.7 136.639 91.1933 136.639 91.74V97.4C136.639 97.56 136.579 97.7 136.459 97.82C136.339 97.94 136.199 98 136.039 98C135.852 98 135.705 97.94 135.599 97.82C135.492 97.7 135.439 97.56 135.439 97.4V88.44C135.439 88.28 135.492 88.14 135.599 88.02C135.719 87.9 135.865 87.84 136.039 87.84C136.212 87.84 136.352 87.9 136.459 88.02C136.579 88.14 136.639 88.28 136.639 88.44V90.3L136.099 91.04C136.139 90.64 136.265 90.24 136.479 89.84C136.705 89.44 136.999 89.08 137.359 88.76C137.719 88.44 138.125 88.1867 138.579 88C139.045 87.8 139.532 87.7 140.039 87.7ZM161.981 87.78C162.154 87.78 162.294 87.84 162.401 87.96C162.521 88.08 162.581 88.2267 162.581 88.4V97.4C162.581 97.56 162.521 97.7 162.401 97.82C162.281 97.94 162.141 98 161.981 98C161.794 98 161.647 97.94 161.541 97.82C161.434 97.7 161.381 97.56 161.381 97.4V95.02L161.721 94.86C161.721 95.2333 161.614 95.6133 161.401 96C161.201 96.3867 160.921 96.7467 160.561 97.08C160.201 97.4133 159.774 97.6867 159.281 97.9C158.801 98.1 158.274 98.2 157.701 98.2C156.807 98.2 156.001 97.9667 155.281 97.5C154.574 97.0333 154.014 96.3933 153.601 95.58C153.201 94.7667 153.001 93.8533 153.001 92.84C153.001 91.8 153.207 90.8867 153.621 90.1C154.034 89.3 154.594 88.6733 155.301 88.22C156.007 87.7667 156.801 87.54 157.681 87.54C158.254 87.54 158.787 87.64 159.281 87.84C159.787 88.04 160.227 88.3133 160.601 88.66C160.974 89.0067 161.267 89.4067 161.481 89.86C161.694 90.3 161.801 90.76 161.801 91.24L161.381 90.94V88.4C161.381 88.2267 161.434 88.08 161.541 87.96C161.647 87.84 161.794 87.78 161.981 87.78ZM157.821 97.08C158.527 97.08 159.154 96.9 159.701 96.54C160.247 96.1667 160.674 95.66 160.981 95.02C161.301 94.3667 161.461 93.64 161.461 92.84C161.461 92.0533 161.301 91.3467 160.981 90.72C160.674 90.0933 160.247 89.5933 159.701 89.22C159.154 88.8467 158.527 88.66 157.821 88.66C157.127 88.66 156.501 88.84 155.941 89.2C155.394 89.56 154.961 90.0533 154.641 90.68C154.334 91.3067 154.181 92.0267 154.181 92.84C154.181 93.64 154.334 94.3667 154.641 95.02C154.947 95.66 155.374 96.1667 155.921 96.54C156.481 96.9 157.114 97.08 157.821 97.08ZM23.9144 112.78C24.0877 112.78 24.2277 112.84 24.3344 112.96C24.4544 113.08 24.5144 113.227 24.5144 113.4V122.4C24.5144 122.56 24.4544 122.7 24.3344 122.82C24.2144 122.94 24.0744 123 23.9144 123C23.7277 123 23.581 122.94 23.4744 122.82C23.3677 122.7 23.3144 122.56 23.3144 122.4V120.02L23.6544 119.86C23.6544 120.233 23.5477 120.613 23.3344 121C23.1344 121.387 22.8544 121.747 22.4944 122.08C22.1344 122.413 21.7077 122.687 21.2144 122.9C20.7344 123.1 20.2077 123.2 19.6344 123.2C18.741 123.2 17.9344 122.967 17.2144 122.5C16.5077 122.033 15.9477 121.393 15.5344 120.58C15.1344 119.767 14.9344 118.853 14.9344 117.84C14.9344 116.8 15.141 115.887 15.5544 115.1C15.9677 114.3 16.5277 113.673 17.2344 113.22C17.941 112.767 18.7344 112.54 19.6144 112.54C20.1877 112.54 20.721 112.64 21.2144 112.84C21.721 113.04 22.161 113.313 22.5344 113.66C22.9077 114.007 23.201 114.407 23.4144 114.86C23.6277 115.3 23.7344 115.76 23.7344 116.24L23.3144 115.94V113.4C23.3144 113.227 23.3677 113.08 23.4744 112.96C23.581 112.84 23.7277 112.78 23.9144 112.78ZM19.7544 122.08C20.461 122.08 21.0877 121.9 21.6344 121.54C22.181 121.167 22.6077 120.66 22.9144 120.02C23.2344 119.367 23.3944 118.64 23.3944 117.84C23.3944 117.053 23.2344 116.347 22.9144 115.72C22.6077 115.093 22.181 114.593 21.6344 114.22C21.0877 113.847 20.461 113.66 19.7544 113.66C19.061 113.66 18.4344 113.84 17.8744 114.2C17.3277 114.56 16.8944 115.053 16.5744 115.68C16.2677 116.307 16.1144 117.027 16.1144 117.84C16.1144 118.64 16.2677 119.367 16.5744 120.02C16.881 120.66 17.3077 121.167 17.8544 121.54C18.4144 121.9 19.0477 122.08 19.7544 122.08ZM28.9656 122.4C28.9656 122.56 28.9056 122.7 28.7856 122.82C28.6656 122.94 28.5256 123 28.3656 123C28.1923 123 28.0456 122.94 27.9256 122.82C27.8189 122.7 27.7656 122.56 27.7656 122.4V108.8C27.7656 108.64 27.8256 108.5 27.9456 108.38C28.0656 108.26 28.2056 108.2 28.3656 108.2C28.5389 108.2 28.6789 108.26 28.7856 108.38C28.9056 108.5 28.9656 108.64 28.9656 108.8V122.4ZM33.575 122.4C33.575 122.56 33.515 122.7 33.395 122.82C33.275 122.94 33.135 123 32.975 123C32.8017 123 32.655 122.94 32.535 122.82C32.4283 122.7 32.375 122.56 32.375 122.4V108.8C32.375 108.64 32.435 108.5 32.555 108.38C32.675 108.26 32.815 108.2 32.975 108.2C33.1483 108.2 33.2883 108.26 33.395 108.38C33.515 108.5 33.575 108.64 33.575 108.8V122.4ZM38.4044 110.1C38.4044 110.393 38.3444 110.687 38.2244 110.98C38.1177 111.26 37.9644 111.52 37.7644 111.76C37.5777 112 37.371 112.187 37.1444 112.32C36.931 112.453 36.7244 112.52 36.5244 112.52C36.391 112.52 36.271 112.487 36.1644 112.42C36.0577 112.353 36.0044 112.24 36.0044 112.08C36.0044 111.867 36.0777 111.747 36.2244 111.72C36.3844 111.693 36.551 111.633 36.7244 111.54C36.911 111.447 37.051 111.307 37.1444 111.12C37.251 110.933 37.3044 110.74 37.3044 110.54C37.3044 110.407 37.2644 110.293 37.1844 110.2C37.1044 110.093 36.9977 110.04 36.8644 110.04C36.771 110.04 36.671 110.06 36.5644 110.1C36.471 110.127 36.391 110.167 36.3244 110.22C36.2444 110.153 36.1777 110.08 36.1244 110C36.0844 109.907 36.071 109.8 36.0844 109.68C36.0977 109.533 36.1577 109.4 36.2644 109.28C36.3844 109.147 36.5244 109.047 36.6844 108.98C36.8577 108.9 37.0377 108.86 37.2244 108.86C37.571 108.86 37.851 108.967 38.0644 109.18C38.291 109.393 38.4044 109.7 38.4044 110.1ZM50.1911 117.88C50.1911 118.893 49.9644 119.807 49.5111 120.62C49.0711 121.42 48.4711 122.053 47.7111 122.52C46.9511 122.973 46.0911 123.2 45.1311 123.2C44.1844 123.2 43.3244 122.973 42.5511 122.52C41.7911 122.053 41.1844 121.42 40.7311 120.62C40.2911 119.807 40.0711 118.893 40.0711 117.88C40.0711 116.853 40.2911 115.94 40.7311 115.14C41.1844 114.34 41.7911 113.707 42.5511 113.24C43.3244 112.773 44.1844 112.54 45.1311 112.54C46.0911 112.54 46.9511 112.773 47.7111 113.24C48.4711 113.707 49.0711 114.34 49.5111 115.14C49.9644 115.94 50.1911 116.853 50.1911 117.88ZM48.9911 117.88C48.9911 117.067 48.8244 116.347 48.4911 115.72C48.1577 115.08 47.6977 114.58 47.1111 114.22C46.5377 113.847 45.8777 113.66 45.1311 113.66C44.3977 113.66 43.7377 113.847 43.1511 114.22C42.5777 114.58 42.1177 115.08 41.7711 115.72C41.4377 116.347 41.2711 117.067 41.2711 117.88C41.2711 118.693 41.4377 119.413 41.7711 120.04C42.1177 120.667 42.5777 121.167 43.1511 121.54C43.7377 121.9 44.3977 122.08 45.1311 122.08C45.8777 122.08 46.5377 121.9 47.1111 121.54C47.6977 121.167 48.1577 120.667 48.4911 120.04C48.8244 119.413 48.9911 118.693 48.9911 117.88ZM53.2456 123C53.0589 123 52.9123 122.94 52.8056 122.82C52.6989 122.7 52.6456 122.56 52.6456 122.4V113.44C52.6456 113.28 52.6989 113.14 52.8056 113.02C52.9256 112.9 53.0723 112.84 53.2456 112.84C53.4189 112.84 53.5589 112.9 53.6656 113.02C53.7856 113.14 53.8456 113.28 53.8456 113.44V116.44L53.5456 116.5C53.5856 116.033 53.6989 115.573 53.8856 115.12C54.0856 114.653 54.3523 114.227 54.6856 113.84C55.0189 113.453 55.4123 113.14 55.8656 112.9C56.3323 112.66 56.8523 112.54 57.4256 112.54C57.6656 112.54 57.8989 112.593 58.1256 112.7C58.3523 112.793 58.4656 112.953 58.4656 113.18C58.4656 113.38 58.4123 113.533 58.3056 113.64C58.1989 113.747 58.0723 113.8 57.9256 113.8C57.8056 113.8 57.6723 113.767 57.5256 113.7C57.3923 113.633 57.2123 113.6 56.9856 113.6C56.6123 113.6 56.2389 113.713 55.8656 113.94C55.4923 114.153 55.1523 114.447 54.8456 114.82C54.5389 115.193 54.2923 115.613 54.1056 116.08C53.9323 116.533 53.8456 116.993 53.8456 117.46V122.4C53.8456 122.56 53.7856 122.7 53.6656 122.82C53.5456 122.94 53.4056 123 53.2456 123ZM61.5009 122.4C61.5009 122.56 61.4409 122.7 61.3209 122.82C61.2009 122.94 61.0609 123 60.9009 123C60.7276 123 60.5809 122.94 60.4609 122.82C60.3543 122.7 60.3009 122.56 60.3009 122.4V113.2C60.3009 113.04 60.3543 112.9 60.4609 112.78C60.5809 112.66 60.7276 112.6 60.9009 112.6C61.0743 112.6 61.2143 112.66 61.3209 112.78C61.4409 112.9 61.5009 113.04 61.5009 113.2V122.4ZM60.9009 111.26C60.6209 111.26 60.4076 111.2 60.2609 111.08C60.1276 110.947 60.0609 110.76 60.0609 110.52V110.32C60.0609 110.08 60.1343 109.9 60.2809 109.78C60.4409 109.647 60.6543 109.58 60.9209 109.58C61.1743 109.58 61.3676 109.647 61.5009 109.78C61.6476 109.9 61.7209 110.08 61.7209 110.32V110.52C61.7209 110.76 61.6476 110.947 61.5009 111.08C61.3676 111.2 61.1676 111.26 60.9009 111.26ZM68.7983 112.54C69.3849 112.54 69.9316 112.647 70.4383 112.86C70.9449 113.06 71.3849 113.327 71.7583 113.66C72.1449 113.98 72.4449 114.327 72.6583 114.7C72.8716 115.06 72.9783 115.407 72.9783 115.74L72.6583 115.26V113.4C72.6583 113.227 72.7116 113.08 72.8183 112.96C72.9383 112.84 73.0849 112.78 73.2583 112.78C73.4316 112.78 73.5716 112.84 73.6783 112.96C73.7983 113.08 73.8583 113.227 73.8583 113.4V122.06C73.8583 123.127 73.6383 124.027 73.1983 124.76C72.7583 125.493 72.1583 126.047 71.3983 126.42C70.6516 126.807 69.7983 127 68.8383 127C68.3716 127 67.8783 126.94 67.3583 126.82C66.8516 126.7 66.4116 126.547 66.0383 126.36C65.6783 126.173 65.4716 125.98 65.4183 125.78C65.3249 125.66 65.2783 125.54 65.2783 125.42C65.2916 125.313 65.3516 125.22 65.4583 125.14C65.5783 125.047 65.7116 125.033 65.8583 125.1C66.0183 125.18 66.2449 125.28 66.5383 125.4C66.6583 125.44 66.8316 125.5 67.0583 125.58C67.2983 125.66 67.5716 125.727 67.8783 125.78C68.1983 125.847 68.5249 125.88 68.8583 125.88C70.0583 125.88 70.9916 125.533 71.6583 124.84C72.3249 124.16 72.6583 123.26 72.6583 122.14V120.22L72.8783 120.28C72.7583 120.76 72.5583 121.18 72.2783 121.54C71.9983 121.9 71.6716 122.207 71.2983 122.46C70.9249 122.7 70.5249 122.88 70.0983 123C69.6716 123.133 69.2449 123.2 68.8183 123.2C67.8983 123.2 67.0649 122.967 66.3183 122.5C65.5849 122.033 65.0049 121.4 64.5783 120.6C64.1516 119.8 63.9383 118.887 63.9383 117.86C63.9383 116.847 64.1516 115.94 64.5783 115.14C65.0049 114.327 65.5849 113.693 66.3183 113.24C67.0516 112.773 67.8783 112.54 68.7983 112.54ZM68.9183 113.66C68.1983 113.66 67.5449 113.847 66.9583 114.22C66.3849 114.58 65.9316 115.08 65.5983 115.72C65.2783 116.347 65.1183 117.06 65.1183 117.86C65.1183 118.66 65.2783 119.38 65.5983 120.02C65.9316 120.66 66.3849 121.167 66.9583 121.54C67.5449 121.9 68.1983 122.08 68.9183 122.08C69.6516 122.08 70.3049 121.9 70.8783 121.54C71.4516 121.18 71.9049 120.687 72.2383 120.06C72.5716 119.42 72.7383 118.687 72.7383 117.86C72.7383 117.033 72.5716 116.307 72.2383 115.68C71.9049 115.04 71.4516 114.547 70.8783 114.2C70.3049 113.84 69.6516 113.66 68.9183 113.66ZM78.1806 122.4C78.1806 122.56 78.1206 122.7 78.0006 122.82C77.8806 122.94 77.7406 123 77.5806 123C77.4073 123 77.2606 122.94 77.1406 122.82C77.0339 122.7 76.9806 122.56 76.9806 122.4V113.2C76.9806 113.04 77.0339 112.9 77.1406 112.78C77.2606 112.66 77.4073 112.6 77.5806 112.6C77.7539 112.6 77.8939 112.66 78.0006 112.78C78.1206 112.9 78.1806 113.04 78.1806 113.2V122.4ZM77.5806 111.26C77.3006 111.26 77.0873 111.2 76.9406 111.08C76.8073 110.947 76.7406 110.76 76.7406 110.52V110.32C76.7406 110.08 76.8139 109.9 76.9606 109.78C77.1206 109.647 77.3339 109.58 77.6006 109.58C77.8539 109.58 78.0473 109.647 78.1806 109.78C78.3273 109.9 78.4006 110.08 78.4006 110.32V110.52C78.4006 110.76 78.3273 110.947 78.1806 111.08C78.0473 111.2 77.8473 111.26 77.5806 111.26ZM86.118 112.54C86.998 112.54 87.698 112.72 88.218 113.08C88.7513 113.427 89.1313 113.907 89.358 114.52C89.598 115.12 89.718 115.787 89.718 116.52V122.4C89.718 122.56 89.658 122.7 89.538 122.82C89.418 122.94 89.278 123 89.118 123C88.9313 123 88.7846 122.94 88.678 122.82C88.5713 122.7 88.518 122.56 88.518 122.4V116.58C88.518 116.047 88.4313 115.56 88.258 115.12C88.0846 114.68 87.798 114.327 87.398 114.06C87.0113 113.793 86.498 113.66 85.858 113.66C85.2846 113.66 84.738 113.793 84.218 114.06C83.7113 114.327 83.298 114.68 82.978 115.12C82.658 115.56 82.498 116.047 82.498 116.58V122.4C82.498 122.56 82.438 122.7 82.318 122.82C82.198 122.94 82.058 123 81.898 123C81.7113 123 81.5646 122.94 81.458 122.82C81.3513 122.7 81.298 122.56 81.298 122.4V113.44C81.298 113.28 81.3513 113.14 81.458 113.02C81.578 112.9 81.7246 112.84 81.898 112.84C82.0713 112.84 82.2113 112.9 82.318 113.02C82.438 113.14 82.498 113.28 82.498 113.44V115.12L82.038 115.84C82.0646 115.413 82.198 115.007 82.438 114.62C82.6913 114.22 83.0113 113.867 83.398 113.56C83.7846 113.24 84.2113 112.993 84.678 112.82C85.158 112.633 85.638 112.54 86.118 112.54ZM97.4005 123.2C96.3738 123.2 95.4671 122.98 94.6805 122.54C93.8938 122.1 93.2805 121.487 92.8405 120.7C92.4005 119.913 92.1805 118.993 92.1805 117.94C92.1805 116.807 92.4005 115.84 92.8405 115.04C93.2938 114.24 93.8738 113.627 94.5805 113.2C95.3005 112.76 96.0605 112.54 96.8605 112.54C97.4471 112.54 98.0138 112.647 98.5605 112.86C99.1205 113.06 99.6138 113.367 100.04 113.78C100.467 114.18 100.814 114.673 101.08 115.26C101.347 115.847 101.487 116.527 101.5 117.3C101.5 117.46 101.44 117.6 101.32 117.72C101.2 117.827 101.06 117.88 100.9 117.88H92.8805L92.6405 116.8H100.52L100.26 117.04V116.64C100.194 116.013 99.9871 115.48 99.6405 115.04C99.2938 114.6 98.8738 114.267 98.3805 114.04C97.9005 113.813 97.3938 113.7 96.8605 113.7C96.4605 113.7 96.0471 113.78 95.6205 113.94C95.2071 114.1 94.8271 114.353 94.4805 114.7C94.1471 115.033 93.8738 115.467 93.6605 116C93.4471 116.52 93.3405 117.14 93.3405 117.86C93.3405 118.647 93.5005 119.36 93.8205 120C94.1405 120.64 94.6005 121.147 95.2005 121.52C95.8005 121.893 96.5271 122.08 97.3805 122.08C97.8338 122.08 98.2471 122.013 98.6205 121.88C98.9938 121.747 99.3205 121.573 99.6005 121.36C99.8938 121.133 100.134 120.9 100.32 120.66C100.467 120.54 100.607 120.48 100.74 120.48C100.887 120.48 101.007 120.533 101.1 120.64C101.207 120.747 101.26 120.867 101.26 121C101.26 121.16 101.194 121.3 101.06 121.42C100.66 121.9 100.14 122.32 99.5005 122.68C98.8605 123.027 98.1605 123.2 97.4005 123.2ZM117.742 108.2C117.916 108.2 118.056 108.26 118.162 108.38C118.282 108.487 118.342 108.627 118.342 108.8V122.4C118.342 122.56 118.282 122.7 118.162 122.82C118.042 122.94 117.902 123 117.742 123C117.556 123 117.409 122.94 117.302 122.82C117.196 122.7 117.142 122.56 117.142 122.4V120.02L117.482 119.74C117.482 120.113 117.382 120.507 117.182 120.92C116.982 121.32 116.696 121.693 116.322 122.04C115.962 122.387 115.536 122.667 115.042 122.88C114.562 123.093 114.036 123.2 113.462 123.2C112.582 123.2 111.782 122.967 111.062 122.5C110.356 122.033 109.796 121.4 109.382 120.6C108.969 119.8 108.762 118.887 108.762 117.86C108.762 116.847 108.969 115.94 109.382 115.14C109.796 114.327 110.356 113.693 111.062 113.24C111.769 112.773 112.562 112.54 113.442 112.54C114.002 112.54 114.529 112.64 115.022 112.84C115.516 113.04 115.949 113.313 116.322 113.66C116.709 114.007 117.009 114.407 117.222 114.86C117.449 115.3 117.562 115.76 117.562 116.24L117.142 115.94V108.8C117.142 108.64 117.196 108.5 117.302 108.38C117.409 108.26 117.556 108.2 117.742 108.2ZM113.582 122.08C114.289 122.08 114.916 121.9 115.462 121.54C116.009 121.167 116.436 120.667 116.742 120.04C117.062 119.4 117.222 118.673 117.222 117.86C117.222 117.06 117.062 116.347 116.742 115.72C116.436 115.08 116.009 114.58 115.462 114.22C114.916 113.847 114.289 113.66 113.582 113.66C112.889 113.66 112.262 113.847 111.702 114.22C111.156 114.58 110.722 115.08 110.402 115.72C110.096 116.347 109.942 117.06 109.942 117.86C109.942 118.66 110.096 119.38 110.402 120.02C110.722 120.66 111.156 121.167 111.702 121.54C112.262 121.9 112.889 122.08 113.582 122.08ZM126.014 123.2C124.987 123.2 124.08 122.98 123.294 122.54C122.507 122.1 121.894 121.487 121.454 120.7C121.014 119.913 120.794 118.993 120.794 117.94C120.794 116.807 121.014 115.84 121.454 115.04C121.907 114.24 122.487 113.627 123.194 113.2C123.914 112.76 124.674 112.54 125.474 112.54C126.06 112.54 126.627 112.647 127.174 112.86C127.734 113.06 128.227 113.367 128.654 113.78C129.08 114.18 129.427 114.673 129.694 115.26C129.96 115.847 130.1 116.527 130.114 117.3C130.114 117.46 130.054 117.6 129.934 117.72C129.814 117.827 129.674 117.88 129.514 117.88H121.494L121.254 116.8H129.134L128.874 117.04V116.64C128.807 116.013 128.6 115.48 128.254 115.04C127.907 114.6 127.487 114.267 126.994 114.04C126.514 113.813 126.007 113.7 125.474 113.7C125.074 113.7 124.66 113.78 124.234 113.94C123.82 114.1 123.44 114.353 123.094 114.7C122.76 115.033 122.487 115.467 122.274 116C122.06 116.52 121.954 117.14 121.954 117.86C121.954 118.647 122.114 119.36 122.434 120C122.754 120.64 123.214 121.147 123.814 121.52C124.414 121.893 125.14 122.08 125.994 122.08C126.447 122.08 126.86 122.013 127.234 121.88C127.607 121.747 127.934 121.573 128.214 121.36C128.507 121.133 128.747 120.9 128.934 120.66C129.08 120.54 129.22 120.48 129.354 120.48C129.5 120.48 129.62 120.533 129.714 120.64C129.82 120.747 129.874 120.867 129.874 121C129.874 121.16 129.807 121.3 129.674 121.42C129.274 121.9 128.754 122.32 128.114 122.68C127.474 123.027 126.774 123.2 126.014 123.2ZM133.907 122.4C133.907 122.56 133.847 122.7 133.727 122.82C133.607 122.94 133.467 123 133.307 123C133.134 123 132.987 122.94 132.867 122.82C132.76 122.7 132.707 122.56 132.707 122.4V108.8C132.707 108.64 132.767 108.5 132.887 108.38C133.007 108.26 133.147 108.2 133.307 108.2C133.48 108.2 133.62 108.26 133.727 108.38C133.847 108.5 133.907 108.64 133.907 108.8V122.4ZM142.085 121.38C141.978 121.22 141.925 121.067 141.925 120.92C141.938 120.76 142.025 120.633 142.185 120.54C142.292 120.447 142.412 120.407 142.545 120.42C142.692 120.433 142.825 120.5 142.945 120.62C143.305 121.087 143.738 121.467 144.245 121.76C144.765 122.04 145.378 122.18 146.085 122.18C146.458 122.18 146.825 122.12 147.185 122C147.558 121.867 147.865 121.673 148.105 121.42C148.345 121.153 148.465 120.82 148.465 120.42C148.465 120.007 148.345 119.673 148.105 119.42C147.865 119.167 147.552 118.967 147.165 118.82C146.792 118.673 146.392 118.547 145.965 118.44C145.512 118.32 145.072 118.187 144.645 118.04C144.218 117.88 143.838 117.687 143.505 117.46C143.185 117.22 142.925 116.933 142.725 116.6C142.525 116.267 142.425 115.86 142.425 115.38C142.425 114.82 142.578 114.327 142.885 113.9C143.192 113.473 143.605 113.14 144.125 112.9C144.658 112.66 145.258 112.54 145.925 112.54C146.258 112.54 146.618 112.587 147.005 112.68C147.392 112.76 147.772 112.9 148.145 113.1C148.518 113.3 148.852 113.573 149.145 113.92C149.265 114.04 149.325 114.18 149.325 114.34C149.325 114.487 149.258 114.62 149.125 114.74C149.018 114.82 148.892 114.86 148.745 114.86C148.612 114.86 148.498 114.807 148.405 114.7C148.085 114.34 147.705 114.067 147.265 113.88C146.825 113.693 146.352 113.6 145.845 113.6C145.458 113.6 145.092 113.667 144.745 113.8C144.412 113.92 144.132 114.107 143.905 114.36C143.678 114.613 143.565 114.947 143.565 115.36C143.592 115.747 143.725 116.06 143.965 116.3C144.218 116.54 144.545 116.74 144.945 116.9C145.358 117.06 145.818 117.207 146.325 117.34C146.752 117.447 147.158 117.573 147.545 117.72C147.945 117.867 148.292 118.053 148.585 118.28C148.892 118.493 149.132 118.767 149.305 119.1C149.492 119.433 149.585 119.853 149.585 120.36C149.585 120.947 149.418 121.453 149.085 121.88C148.765 122.307 148.332 122.633 147.785 122.86C147.238 123.087 146.632 123.2 145.965 123.2C145.245 123.2 144.545 123.06 143.865 122.78C143.198 122.5 142.605 122.033 142.085 121.38ZM153.2 122.4C153.2 122.56 153.14 122.7 153.02 122.82C152.9 122.94 152.76 123 152.6 123C152.427 123 152.28 122.94 152.16 122.82C152.053 122.7 152 122.56 152 122.4V113.2C152 113.04 152.053 112.9 152.16 112.78C152.28 112.66 152.427 112.6 152.6 112.6C152.773 112.6 152.913 112.66 153.02 112.78C153.14 112.9 153.2 113.04 153.2 113.2V122.4ZM152.6 111.26C152.32 111.26 152.107 111.2 151.96 111.08C151.827 110.947 151.76 110.76 151.76 110.52V110.32C151.76 110.08 151.833 109.9 151.98 109.78C152.14 109.647 152.353 109.58 152.62 109.58C152.873 109.58 153.067 109.647 153.2 109.78C153.347 109.9 153.42 110.08 153.42 110.32V110.52C153.42 110.76 153.347 110.947 153.2 111.08C153.067 111.2 152.867 111.26 152.6 111.26ZM160.497 112.54C161.084 112.54 161.631 112.647 162.137 112.86C162.644 113.06 163.084 113.327 163.457 113.66C163.844 113.98 164.144 114.327 164.357 114.7C164.571 115.06 164.677 115.407 164.677 115.74L164.357 115.26V113.4C164.357 113.227 164.411 113.08 164.517 112.96C164.637 112.84 164.784 112.78 164.957 112.78C165.131 112.78 165.271 112.84 165.377 112.96C165.497 113.08 165.557 113.227 165.557 113.4V122.06C165.557 123.127 165.337 124.027 164.897 124.76C164.457 125.493 163.857 126.047 163.097 126.42C162.351 126.807 161.497 127 160.537 127C160.071 127 159.577 126.94 159.057 126.82C158.551 126.7 158.111 126.547 157.737 126.36C157.377 126.173 157.171 125.98 157.117 125.78C157.024 125.66 156.977 125.54 156.977 125.42C156.991 125.313 157.051 125.22 157.157 125.14C157.277 125.047 157.411 125.033 157.557 125.1C157.717 125.18 157.944 125.28 158.237 125.4C158.357 125.44 158.531 125.5 158.757 125.58C158.997 125.66 159.271 125.727 159.577 125.78C159.897 125.847 160.224 125.88 160.557 125.88C161.757 125.88 162.691 125.533 163.357 124.84C164.024 124.16 164.357 123.26 164.357 122.14V120.22L164.577 120.28C164.457 120.76 164.257 121.18 163.977 121.54C163.697 121.9 163.371 122.207 162.997 122.46C162.624 122.7 162.224 122.88 161.797 123C161.371 123.133 160.944 123.2 160.517 123.2C159.597 123.2 158.764 122.967 158.017 122.5C157.284 122.033 156.704 121.4 156.277 120.6C155.851 119.8 155.637 118.887 155.637 117.86C155.637 116.847 155.851 115.94 156.277 115.14C156.704 114.327 157.284 113.693 158.017 113.24C158.751 112.773 159.577 112.54 160.497 112.54ZM160.617 113.66C159.897 113.66 159.244 113.847 158.657 114.22C158.084 114.58 157.631 115.08 157.297 115.72C156.977 116.347 156.817 117.06 156.817 117.86C156.817 118.66 156.977 119.38 157.297 120.02C157.631 120.66 158.084 121.167 158.657 121.54C159.244 121.9 159.897 122.08 160.617 122.08C161.351 122.08 162.004 121.9 162.577 121.54C163.151 121.18 163.604 120.687 163.937 120.06C164.271 119.42 164.437 118.687 164.437 117.86C164.437 117.033 164.271 116.307 163.937 115.68C163.604 115.04 163.151 114.547 162.577 114.2C162.004 113.84 161.351 113.66 160.617 113.66ZM173.54 112.54C174.42 112.54 175.12 112.72 175.64 113.08C176.173 113.427 176.553 113.907 176.78 114.52C177.02 115.12 177.14 115.787 177.14 116.52V122.4C177.14 122.56 177.08 122.7 176.96 122.82C176.84 122.94 176.7 123 176.54 123C176.353 123 176.206 122.94 176.1 122.82C175.993 122.7 175.94 122.56 175.94 122.4V116.58C175.94 116.047 175.853 115.56 175.68 115.12C175.506 114.68 175.22 114.327 174.82 114.06C174.433 113.793 173.92 113.66 173.28 113.66C172.706 113.66 172.16 113.793 171.64 114.06C171.133 114.327 170.72 114.68 170.4 115.12C170.08 115.56 169.92 116.047 169.92 116.58V122.4C169.92 122.56 169.86 122.7 169.74 122.82C169.62 122.94 169.48 123 169.32 123C169.133 123 168.986 122.94 168.88 122.82C168.773 122.7 168.72 122.56 168.72 122.4V113.44C168.72 113.28 168.773 113.14 168.88 113.02C169 112.9 169.146 112.84 169.32 112.84C169.493 112.84 169.633 112.9 169.74 113.02C169.86 113.14 169.92 113.28 169.92 113.44V115.12L169.46 115.84C169.486 115.413 169.62 115.007 169.86 114.62C170.113 114.22 170.433 113.867 170.82 113.56C171.206 113.24 171.633 112.993 172.1 112.82C172.58 112.633 173.06 112.54 173.54 112.54ZM181.442 122.4C181.442 122.56 181.382 122.7 181.262 122.82C181.142 122.94 181.002 123 180.842 123C180.669 123 180.522 122.94 180.402 122.82C180.296 122.7 180.242 122.56 180.242 122.4V113.2C180.242 113.04 180.296 112.9 180.402 112.78C180.522 112.66 180.669 112.6 180.842 112.6C181.016 112.6 181.156 112.66 181.262 112.78C181.382 112.9 181.442 113.04 181.442 113.2V122.4ZM180.842 111.26C180.562 111.26 180.349 111.2 180.202 111.08C180.069 110.947 180.002 110.76 180.002 110.52V110.32C180.002 110.08 180.076 109.9 180.222 109.78C180.382 109.647 180.596 109.58 180.862 109.58C181.116 109.58 181.309 109.647 181.442 109.78C181.589 109.9 181.662 110.08 181.662 110.32V110.52C181.662 110.76 181.589 110.947 181.442 111.08C181.309 111.2 181.109 111.26 180.842 111.26ZM188.26 108.28C188.46 108.28 188.673 108.3 188.9 108.34C189.14 108.38 189.346 108.453 189.52 108.56C189.693 108.653 189.78 108.8 189.78 109C189.78 109.147 189.726 109.28 189.62 109.4C189.513 109.507 189.393 109.56 189.26 109.56C189.126 109.56 188.96 109.527 188.76 109.46C188.56 109.38 188.346 109.34 188.12 109.34C187.84 109.34 187.6 109.407 187.4 109.54C187.2 109.66 187.046 109.84 186.94 110.08C186.833 110.307 186.78 110.587 186.78 110.92V122.4C186.78 122.56 186.72 122.7 186.6 122.82C186.493 122.94 186.353 123 186.18 123C186.006 123 185.86 122.94 185.74 122.82C185.633 122.7 185.58 122.56 185.58 122.4V110.92C185.58 110.067 185.826 109.413 186.32 108.96C186.826 108.507 187.473 108.28 188.26 108.28ZM189.02 112.98C189.18 112.98 189.313 113.033 189.42 113.14C189.526 113.247 189.58 113.38 189.58 113.54C189.58 113.7 189.526 113.833 189.42 113.94C189.313 114.047 189.18 114.1 189.02 114.1H184.12C183.973 114.1 183.84 114.047 183.72 113.94C183.613 113.82 183.56 113.687 183.56 113.54C183.56 113.367 183.613 113.233 183.72 113.14C183.84 113.033 183.973 112.98 184.12 112.98H189.02ZM192.78 122.4C192.78 122.56 192.72 122.7 192.6 122.82C192.48 122.94 192.34 123 192.18 123C192.006 123 191.86 122.94 191.74 122.82C191.633 122.7 191.58 122.56 191.58 122.4V113.2C191.58 113.04 191.633 112.9 191.74 112.78C191.86 112.66 192.006 112.6 192.18 112.6C192.353 112.6 192.493 112.66 192.6 112.78C192.72 112.9 192.78 113.04 192.78 113.2V122.4ZM192.18 111.26C191.9 111.26 191.686 111.2 191.54 111.08C191.406 110.947 191.34 110.76 191.34 110.52V110.32C191.34 110.08 191.413 109.9 191.56 109.78C191.72 109.647 191.933 109.58 192.2 109.58C192.453 109.58 192.646 109.647 192.78 109.78C192.926 109.9 193 110.08 193 110.32V110.52C193 110.76 192.926 110.947 192.78 111.08C192.646 111.2 192.446 111.26 192.18 111.26ZM200.327 112.54C200.967 112.54 201.554 112.613 202.087 112.76C202.621 112.893 203.047 113.08 203.367 113.32C203.701 113.56 203.867 113.82 203.867 114.1C203.867 114.233 203.814 114.367 203.707 114.5C203.614 114.62 203.494 114.68 203.347 114.68C203.174 114.68 203.034 114.64 202.927 114.56C202.834 114.48 202.741 114.387 202.647 114.28C202.554 114.173 202.414 114.073 202.227 113.98C202.054 113.9 201.801 113.827 201.467 113.76C201.147 113.693 200.787 113.66 200.387 113.66C199.641 113.66 198.967 113.847 198.367 114.22C197.767 114.593 197.294 115.1 196.947 115.74C196.601 116.367 196.427 117.073 196.427 117.86C196.427 118.66 196.587 119.38 196.907 120.02C197.241 120.66 197.701 121.167 198.287 121.54C198.887 121.9 199.574 122.08 200.347 122.08C200.881 122.08 201.294 122.033 201.587 121.94C201.894 121.847 202.147 121.74 202.347 121.62C202.614 121.473 202.801 121.333 202.907 121.2C203.027 121.053 203.181 120.98 203.367 120.98C203.527 120.98 203.654 121.033 203.747 121.14C203.841 121.233 203.887 121.36 203.887 121.52C203.887 121.733 203.727 121.973 203.407 122.24C203.101 122.493 202.674 122.72 202.127 122.92C201.581 123.107 200.947 123.2 200.227 123.2C199.241 123.2 198.367 122.967 197.607 122.5C196.861 122.033 196.274 121.4 195.847 120.6C195.434 119.787 195.227 118.873 195.227 117.86C195.227 116.887 195.441 116 195.867 115.2C196.294 114.4 196.887 113.76 197.647 113.28C198.407 112.787 199.301 112.54 200.327 112.54ZM214.481 112.78C214.654 112.78 214.794 112.84 214.901 112.96C215.021 113.08 215.081 113.227 215.081 113.4V122.4C215.081 122.56 215.021 122.7 214.901 122.82C214.781 122.94 214.641 123 214.481 123C214.294 123 214.147 122.94 214.041 122.82C213.934 122.7 213.881 122.56 213.881 122.4V120.02L214.221 119.86C214.221 120.233 214.114 120.613 213.901 121C213.701 121.387 213.421 121.747 213.061 122.08C212.701 122.413 212.274 122.687 211.781 122.9C211.301 123.1 210.774 123.2 210.201 123.2C209.307 123.2 208.501 122.967 207.781 122.5C207.074 122.033 206.514 121.393 206.101 120.58C205.701 119.767 205.501 118.853 205.501 117.84C205.501 116.8 205.707 115.887 206.121 115.1C206.534 114.3 207.094 113.673 207.801 113.22C208.507 112.767 209.301 112.54 210.181 112.54C210.754 112.54 211.287 112.64 211.781 112.84C212.287 113.04 212.727 113.313 213.101 113.66C213.474 114.007 213.767 114.407 213.981 114.86C214.194 115.3 214.301 115.76 214.301 116.24L213.881 115.94V113.4C213.881 113.227 213.934 113.08 214.041 112.96C214.147 112.84 214.294 112.78 214.481 112.78ZM210.321 122.08C211.027 122.08 211.654 121.9 212.201 121.54C212.747 121.167 213.174 120.66 213.481 120.02C213.801 119.367 213.961 118.64 213.961 117.84C213.961 117.053 213.801 116.347 213.481 115.72C213.174 115.093 212.747 114.593 212.201 114.22C211.654 113.847 211.027 113.66 210.321 113.66C209.627 113.66 209.001 113.84 208.441 114.2C207.894 114.56 207.461 115.053 207.141 115.68C206.834 116.307 206.681 117.027 206.681 117.84C206.681 118.64 206.834 119.367 207.141 120.02C207.447 120.66 207.874 121.167 208.421 121.54C208.981 121.9 209.614 122.08 210.321 122.08ZM217.552 112.82H222.212C222.372 112.82 222.505 112.88 222.612 113C222.719 113.107 222.772 113.24 222.772 113.4C222.772 113.547 222.719 113.673 222.612 113.78C222.505 113.887 222.372 113.94 222.212 113.94H217.552C217.392 113.94 217.252 113.887 217.132 113.78C217.025 113.66 216.972 113.527 216.972 113.38C216.972 113.22 217.025 113.087 217.132 112.98C217.252 112.873 217.392 112.82 217.552 112.82ZM219.612 110C219.785 110 219.925 110.06 220.032 110.18C220.152 110.3 220.212 110.44 220.212 110.6V120.64C220.212 121.013 220.259 121.293 220.352 121.48C220.459 121.667 220.592 121.793 220.752 121.86C220.912 121.913 221.072 121.94 221.232 121.94C221.339 121.94 221.432 121.927 221.512 121.9C221.605 121.86 221.705 121.84 221.812 121.84C221.932 121.84 222.032 121.887 222.112 121.98C222.205 122.073 222.252 122.193 222.252 122.34C222.252 122.527 222.145 122.687 221.932 122.82C221.719 122.94 221.465 123 221.172 123C221.052 123 220.872 122.993 220.632 122.98C220.392 122.953 220.145 122.88 219.892 122.76C219.639 122.627 219.425 122.4 219.252 122.08C219.092 121.76 219.012 121.3 219.012 120.7V110.6C219.012 110.44 219.065 110.3 219.172 110.18C219.292 110.06 219.439 110 219.612 110ZM234.332 117.88C234.332 118.893 234.105 119.807 233.652 120.62C233.212 121.42 232.612 122.053 231.852 122.52C231.092 122.973 230.232 123.2 229.272 123.2C228.325 123.2 227.465 122.973 226.692 122.52C225.932 122.053 225.325 121.42 224.872 120.62C224.432 119.807 224.212 118.893 224.212 117.88C224.212 116.853 224.432 115.94 224.872 115.14C225.325 114.34 225.932 113.707 226.692 113.24C227.465 112.773 228.325 112.54 229.272 112.54C230.232 112.54 231.092 112.773 231.852 113.24C232.612 113.707 233.212 114.34 233.652 115.14C234.105 115.94 234.332 116.853 234.332 117.88ZM233.132 117.88C233.132 117.067 232.965 116.347 232.632 115.72C232.298 115.08 231.838 114.58 231.252 114.22C230.678 113.847 230.018 113.66 229.272 113.66C228.538 113.66 227.878 113.847 227.292 114.22C226.718 114.58 226.258 115.08 225.912 115.72C225.578 116.347 225.412 117.067 225.412 117.88C225.412 118.693 225.578 119.413 225.912 120.04C226.258 120.667 226.718 121.167 227.292 121.54C227.878 121.9 228.538 122.08 229.272 122.08C230.018 122.08 230.678 121.9 231.252 121.54C231.838 121.167 232.298 120.667 232.632 120.04C232.965 119.413 233.132 118.693 233.132 117.88Z" fill="white"/>
<path fill-rule="evenodd" clip-rule="evenodd" d="M37.3899 50.9248C42.2308 46.0744 44.6516 39.0984 44.6516 29.9934V23.3756H1.29388C1.57429 18.7529 3.33643 15.2153 6.58186 12.7657C9.82625 10.313 14.6062 9.08879 20.9206 9.08879C24.9193 9.08879 28.7949 9.80523 32.5489 11.2417C36.3024 12.6762 39.2663 14.2183 41.4413 15.8644H43.546V1H49.8609V53L34.9741 53C35.8363 52.3662 36.6416 51.6745 37.3899 50.9248ZM5.18757 43.5456C2.83667 41.6546 1.52153 38.6248 1.2406 34.4581H25.8139C25.7083 38.4146 24.7258 41.3911 22.8669 43.3872C21.0075 45.3838 18.1134 46.3808 14.1851 46.3808C10.5361 46.3808 7.53692 45.4351 5.18757 43.5456Z" fill="#21D7C1"/>
<path d="M93.5808 33.12C93.5328 34.272 93.0768 35.208 92.2128 35.928C91.3488 36.648 90.3408 37.008 89.1888 37.008H65.4288C66.0048 39.84 67.3248 42.072 69.3888 43.704C71.4528 45.288 73.7808 46.08 76.3728 46.08C78.3408 46.08 79.8768 45.912 80.9808 45.576C82.0848 45.192 82.9488 44.808 83.5728 44.424C84.2448 43.992 84.7008 43.704 84.9408 43.56C85.8048 43.128 86.6208 42.912 87.3888 42.912C88.3968 42.912 89.2608 43.272 89.9808 43.992C90.7008 44.712 91.0608 45.552 91.0608 46.512C91.0608 47.808 90.3888 48.984 89.0448 50.04C87.7008 51.144 85.9008 52.08 83.6448 52.848C81.3888 53.616 79.1088 54 76.8048 54C72.7728 54 69.2448 53.16 66.2208 51.48C63.2448 49.8 60.9408 47.496 59.3088 44.568C57.6768 41.592 56.8608 38.256 56.8608 34.56C56.8608 30.432 57.7248 26.808 59.4528 23.688C61.1808 20.568 63.4608 18.192 66.2928 16.56C69.1248 14.88 72.1488 14.04 75.3648 14.04C78.5328 14.04 81.5088 14.904 84.2928 16.632C87.1248 18.36 89.3808 20.688 91.0608 23.616C92.7408 26.544 93.5808 29.712 93.5808 33.12ZM75.3648 21.96C69.7968 21.96 66.5088 24.576 65.5008 29.808H84.3648V29.304C84.1728 27.288 83.1888 25.56 81.4128 24.12C79.6368 22.68 77.6208 21.96 75.3648 21.96Z" fill="white"/>
<path d="M98.5545 47.304C98.1225 46.728 97.9065 46.008 97.9065 45.144C97.9065 43.896 98.5305 42.84 99.7785 41.976C100.45 41.544 101.146 41.328 101.866 41.328C102.874 41.328 103.834 41.784 104.746 42.696C106.186 44.184 107.674 45.288 109.21 46.008C110.794 46.728 112.69 47.088 114.898 47.088C118.642 46.944 120.514 45.528 120.514 42.84C120.514 41.448 119.866 40.392 118.57 39.672C117.322 38.952 115.354 38.232 112.666 37.512C109.882 36.744 107.602 35.976 105.826 35.208C104.098 34.44 102.586 33.288 101.29 31.752C100.042 30.168 99.4185 28.056 99.4185 25.416C99.4185 23.112 100.066 21.12 101.362 19.44C102.706 17.712 104.434 16.392 106.546 15.48C108.706 14.52 110.986 14.04 113.386 14.04C115.834 14.04 118.282 14.496 120.73 15.408C123.178 16.32 125.098 17.664 126.49 19.44C127.114 20.208 127.426 21.072 127.426 22.032C127.426 23.136 126.97 24.048 126.058 24.768C125.386 25.296 124.618 25.56 123.754 25.56C122.698 25.56 121.834 25.224 121.162 24.552C120.298 23.496 119.17 22.656 117.778 22.032C116.434 21.408 114.898 21.096 113.17 21.096C109.522 21.096 107.698 22.416 107.698 25.056C107.698 26.112 108.034 26.976 108.706 27.648C109.378 28.272 110.218 28.776 111.226 29.16C112.282 29.496 113.746 29.928 115.618 30.456C118.21 31.176 120.37 31.92 122.098 32.688C123.826 33.456 125.29 34.632 126.49 36.216C127.69 37.8 128.29 39.888 128.29 42.48C128.29 44.832 127.594 46.896 126.202 48.672C124.81 50.4 123.01 51.72 120.802 52.632C118.642 53.544 116.41 54 114.106 54C110.938 54 107.986 53.472 105.25 52.416C102.514 51.36 100.282 49.656 98.5545 47.304Z" fill="white"/>
<path d="M154.097 45.144C154.769 45.144 155.369 45.48 155.897 46.152C156.473 46.776 156.761 47.616 156.761 48.672C156.761 49.968 156.041 51.072 154.601 51.984C153.209 52.848 151.625 53.28 149.849 53.28C146.873 53.28 144.353 52.656 142.289 51.408C140.273 50.112 139.265 47.4 139.265 43.272V23.4H135.953C134.801 23.4 133.841 23.016 133.073 22.248C132.305 21.48 131.921 20.52 131.921 19.368C131.921 18.264 132.305 17.352 133.073 16.632C133.841 15.864 134.801 15.48 135.953 15.48H139.265V10.872C139.265 9.624 139.673 8.592 140.489 7.776C141.353 6.912 142.409 6.48 143.657 6.48C144.857 6.48 145.865 6.912 146.681 7.776C147.497 8.592 147.905 9.624 147.905 10.872V15.48H153.017C154.169 15.48 155.129 15.864 155.897 16.632C156.665 17.4 157.049 18.36 157.049 19.512C157.049 20.616 156.665 21.552 155.897 22.32C155.129 23.04 154.169 23.4 153.017 23.4H147.905V42.912C147.905 43.92 148.169 44.664 148.697 45.144C149.225 45.576 149.945 45.792 150.857 45.792C151.241 45.792 151.769 45.696 152.441 45.504C153.017 45.264 153.569 45.144 154.097 45.144Z" fill="white"/>
<path d="M196.158 14.04C197.406 14.04 198.438 14.448 199.254 15.264C200.07 16.08 200.478 17.136 200.478 18.432V48.888C200.478 50.136 200.07 51.192 199.254 52.056C198.438 52.872 197.406 53.28 196.158 53.28C194.91 53.28 193.878 52.872 193.062 52.056C192.294 51.24 191.886 50.208 191.838 48.96C190.638 50.352 189.006 51.552 186.942 52.56C184.926 53.52 182.79 54 180.534 54C177.222 54 174.222 53.16 171.534 51.48C168.846 49.752 166.71 47.376 165.126 44.352C163.59 41.328 162.822 37.896 162.822 34.056C162.822 30.216 163.59 26.784 165.126 23.76C166.662 20.688 168.75 18.312 171.39 16.632C174.078 14.904 177.03 14.04 180.246 14.04C182.55 14.04 184.71 14.472 186.726 15.336C188.742 16.152 190.446 17.208 191.838 18.504V18.432C191.838 17.184 192.246 16.152 193.062 15.336C193.878 14.472 194.91 14.04 196.158 14.04ZM181.614 46.08C184.734 46.08 187.278 44.952 189.246 42.696C191.214 40.392 192.198 37.512 192.198 34.056C192.198 30.6 191.214 27.72 189.246 25.416C187.278 23.112 184.734 21.96 181.614 21.96C178.542 21.96 176.022 23.112 174.054 25.416C172.086 27.72 171.102 30.6 171.102 34.056C171.102 37.512 172.062 40.392 173.982 42.696C175.95 44.952 178.494 46.08 181.614 46.08Z" fill="white"/>
<path d="M219.201 48.888C219.201 50.136 218.769 51.192 217.905 52.056C217.089 52.872 216.057 53.28 214.809 53.28C213.609 53.28 212.601 52.872 211.785 52.056C210.969 51.192 210.561 50.136 210.561 48.888V4.392C210.561 3.144 210.969 2.112 211.785 1.296C212.649 0.431998 213.705 0 214.953 0C216.153 0 217.161 0.431998 217.977 1.296C218.793 2.112 219.201 3.144 219.201 4.392V48.888Z" fill="white"/>
<path d="M247.612 45.144C248.284 45.144 248.884 45.48 249.412 46.152C249.988 46.776 250.276 47.616 250.276 48.672C250.276 49.968 249.556 51.072 248.116 51.984C246.724 52.848 245.14 53.28 243.364 53.28C240.388 53.28 237.868 52.656 235.804 51.408C233.788 50.112 232.78 47.4 232.78 43.272V23.4H229.468C228.316 23.4 227.356 23.016 226.588 22.248C225.82 21.48 225.436 20.52 225.436 19.368C225.436 18.264 225.82 17.352 226.588 16.632C227.356 15.864 228.316 15.48 229.468 15.48H232.78V10.872C232.78 9.624 233.188 8.592 234.004 7.776C234.868 6.912 235.924 6.48 237.172 6.48C238.372 6.48 239.38 6.912 240.196 7.776C241.012 8.592 241.42 9.624 241.42 10.872V15.48H246.532C247.684 15.48 248.644 15.864 249.412 16.632C250.18 17.4 250.564 18.36 250.564 19.512C250.564 20.616 250.18 21.552 249.412 22.32C248.644 23.04 247.684 23.4 246.532 23.4H241.42V42.912C241.42 43.92 241.684 44.664 242.212 45.144C242.74 45.576 243.46 45.792 244.372 45.792C244.756 45.792 245.284 45.696 245.956 45.504C246.532 45.264 247.084 45.144 247.612 45.144Z" fill="white"/>
</svg>
