<svg width="104" height="104" viewBox="0 0 104 104" fill="none" xmlns="http://www.w3.org/2000/svg">
<path d="M34.6665 47.6666H69.3332C69.9732 47.6624 70.6044 47.5164 71.1813 47.2392C71.7582 46.962 72.2666 46.5604 72.6698 46.0633C73.0934 45.5759 73.4028 45 73.5752 44.3777C73.7476 43.7555 73.7788 43.1025 73.6665 42.4666L69.3332 20.7999C69.1306 19.8064 68.586 18.9154 67.7942 18.282C67.0024 17.6485 66.0136 17.3128 64.9998 17.3333H38.9998C37.9861 17.3128 36.9972 17.6485 36.2054 18.282C35.4137 18.9154 34.8691 19.8064 34.6665 20.7999L30.3332 42.4666C30.2091 43.0961 30.2264 43.7453 30.3838 44.3673C30.5411 44.9892 30.8347 45.5685 31.2432 46.0633C31.6556 46.5718 32.1779 46.9802 32.7708 47.2579C33.3637 47.5356 34.0118 47.6753 34.6665 47.6666ZM42.5532 25.9999H61.4465L64.0465 38.9999H39.9532L42.5532 25.9999ZM95.3331 59.7999C95.1306 58.8064 94.586 57.9154 93.7942 57.282C93.0024 56.6485 92.0136 56.3128 90.9998 56.3333H64.9998C63.986 56.3128 62.9972 56.6485 62.2054 57.282C61.4137 57.9154 60.8691 58.8064 60.6665 59.7999L56.3331 81.4666C56.2091 82.0961 56.2264 82.7453 56.3838 83.3673C56.5411 83.9892 56.8347 84.5685 57.2432 85.0633C57.6556 85.5718 58.1778 85.9802 58.7708 86.2579C59.3637 86.5356 60.0118 86.6753 60.6665 86.6666H95.3331C95.9732 86.6624 96.6044 86.5164 97.1813 86.2392C97.7582 85.962 98.2666 85.5604 98.6698 85.0633C99.0934 84.5759 99.4028 84 99.5752 83.3777C99.7476 82.7554 99.7788 82.1025 99.6665 81.4666L95.3331 59.7999ZM65.9532 77.9999L68.5531 64.9999H87.4465L90.0465 77.9999H65.9532ZM38.9998 56.3333H12.9998C11.9861 56.3128 10.9972 56.6485 10.2054 57.282C9.41366 57.9154 8.86908 58.8064 8.66649 59.7999L4.33316 81.4666C4.20912 82.0961 4.22641 82.7453 4.38378 83.3673C4.54115 83.9892 4.83467 84.5685 5.24316 85.0633C5.65557 85.5718 6.17786 85.9802 6.77077 86.2579C7.36369 86.5356 8.01182 86.6753 8.66649 86.6666H43.3332C43.9732 86.6624 44.6044 86.5164 45.1813 86.2392C45.7582 85.962 46.2666 85.5604 46.6698 85.0633C47.0934 84.5759 47.4028 84 47.5752 83.3777C47.7477 82.7554 47.7788 82.1025 47.6665 81.4666L43.3332 59.7999C43.1306 58.8064 42.586 57.9154 41.7942 57.282C41.0024 56.6485 40.0136 56.3128 38.9998 56.3333ZM13.9532 77.9999L16.5532 64.9999H35.4465L38.0465 77.9999H13.9532Z" fill="#21D7C1"/>
</svg>
