<svg width="24" height="24" viewBox="0 0 24 24" fill="none" xmlns="http://www.w3.org/2000/svg">
<path fill-rule="evenodd" clip-rule="evenodd" d="M4.05992 8.9C4.60992 4.42 8.40992 1 12.9999 1C17.9599 1 21.9999 5.03 21.9999 10C21.9999 13.06 20.4999 15.83 17.9999 17.5V23H6.99992V19.87C5.27992 19.42 3.99992 17.85 3.99992 16V14.94C3.25992 14.79 2.61992 14.31 2.25992 13.62C1.82992 12.79 1.89992 11.79 2.44992 11.03L2.46992 11H2.49992L4.05992 8.9ZM19.9999 10C19.9999 6.14 16.8799 3 12.9999 3C9.22992 3 6.18992 5.95 5.99992 9.66L4.07992 12.19C3.83992 12.5 4.07992 13 4.49992 13H5.99992V16C5.99992 17.11 6.88992 18 7.99992 18H8.99992V21H15.9999V16.31C18.3699 15.19 19.9999 12.8 19.9999 10ZM10.3199 7.39H12.2499C12.2599 7.09 12.3499 6.86 12.5299 6.7C12.7099 6.55 12.9299 6.47 13.1899 6.47C13.4999 6.47 13.7599 6.57 13.9399 6.75C14.1199 6.94 14.1999 7.2 14.1999 7.5C14.1999 7.82 14.1299 8.09 13.9699 8.32C13.8299 8.55 13.6199 8.75 13.3599 8.91C12.8499 9.25 12.4999 9.55 12.3099 9.82C12.1099 10.08 11.9999 10.5 11.9999 11H13.9999C13.9999 10.69 14.0399 10.44 14.1299 10.26C14.2199 10.07 14.3899 9.9 14.6399 9.74C15.0899 9.5 15.4599 9.21 15.7499 8.81C16.0399 8.41 16.1899 8 16.1899 7.5C16.1899 6.74 15.9199 6.13 15.3799 5.68C14.8499 5.23 14.1199 5 13.1899 5C12.3199 5 11.6199 5.2 11.0799 5.59C10.5599 6 10.2999 6.57 10.3099 7.36L10.3199 7.39ZM13.9999 14H11.9999V12H13.9999V14Z" fill="white"/>
</svg>
