<svg width="104" height="104" viewBox="0 0 104 104" fill="none" xmlns="http://www.w3.org/2000/svg">
<path d="M10.8334 38.3934L49.8334 60.9267C50.4922 61.3071 51.2394 61.5073 52.0001 61.5073C52.7608 61.5073 53.508 61.3071 54.1668 60.9267L93.1668 38.3934C93.8217 38.0153 94.3663 37.4724 94.7464 36.8186C95.1265 36.1648 95.3289 35.423 95.3334 34.6667C95.3365 33.9032 95.1377 33.1523 94.7572 32.4903C94.3767 31.8283 93.828 31.2785 93.1668 30.8967L54.1668 8.40673C53.508 8.0264 52.7608 7.82617 52.0001 7.82617C51.2394 7.82617 50.4922 8.0264 49.8334 8.40673L10.8334 30.8967C10.1721 31.2785 9.62348 31.8283 9.243 32.4903C8.86252 33.1523 8.66373 33.9032 8.66676 34.6667C8.67132 35.423 8.87371 36.1648 9.25382 36.8186C9.63392 37.4724 10.1785 38.0153 10.8334 38.3934ZM52.0001 17.3334L82.3334 34.6667L52.0001 52.0001L21.6668 34.6667L52.0001 17.3334ZM88.8334 48.4034L52.0001 69.3334L15.1668 48.2301C14.6722 47.9435 14.1258 47.7577 13.5591 47.6832C12.9924 47.6088 12.4165 47.6472 11.8647 47.7962C11.3129 47.9452 10.7961 48.202 10.3439 48.5516C9.89172 48.9012 9.51319 49.3368 9.23009 49.8334C8.66514 50.8284 8.51666 52.0065 8.81703 53.1105C9.1174 54.2146 9.84225 55.1551 10.8334 55.7267L49.8334 78.2601C50.4922 78.6404 51.2394 78.8406 52.0001 78.8406C52.7608 78.8406 53.508 78.6404 54.1668 78.2601L93.1668 55.7267C94.1579 55.1551 94.8828 54.2146 95.1832 53.1105C95.4835 52.0065 95.335 50.8284 94.7701 49.8334C94.487 49.3368 94.1085 48.9012 93.6563 48.5516C93.2041 48.202 92.6872 47.9452 92.1354 47.7962C91.5836 47.6472 91.0078 47.6088 90.4411 47.6832C89.8744 47.7577 89.328 47.9435 88.8334 48.2301V48.4034ZM88.8334 65.7367L52.0001 86.6667L15.1668 65.5634C14.6722 65.2769 14.1258 65.091 13.5591 65.0166C12.9924 64.9421 12.4165 64.9805 11.8647 65.1295C11.3129 65.2786 10.7961 65.5353 10.3439 65.8849C9.89172 66.2346 9.51319 66.6702 9.23009 67.1667C8.66514 68.1617 8.51666 69.3398 8.81703 70.4439C9.1174 71.5479 9.84225 72.4884 10.8334 73.0601L49.8334 95.5934C50.4922 95.9737 51.2394 96.174 52.0001 96.174C52.7608 96.174 53.508 95.9737 54.1668 95.5934L93.1668 73.0601C94.1579 72.4884 94.8828 71.5479 95.1832 70.4439C95.4835 69.3398 95.335 68.1617 94.7701 67.1667C94.487 66.6702 94.1085 66.2346 93.6563 65.8849C93.2041 65.5353 92.6872 65.2786 92.1354 65.1295C91.5836 64.9805 91.0078 64.9421 90.4411 65.0166C89.8744 65.091 89.328 65.2769 88.8334 65.5634V65.7367Z" fill="#21D7C1"/>
</svg>
