<svg width="104" height="104" viewBox="0 0 104 104" fill="none" xmlns="http://www.w3.org/2000/svg">
<path d="M70.9367 55.4233C70.4074 55.2127 69.8419 55.1085 69.2724 55.1165C68.7029 55.1245 68.1405 55.2446 67.6174 55.4699C67.0943 55.6953 66.6207 56.0214 66.2237 56.4298C65.8266 56.8382 65.5139 57.3207 65.3033 57.8499C65.0928 58.3792 64.9885 58.9447 64.9965 59.5142C65.0045 60.0837 65.1246 60.6461 65.35 61.1692C65.5753 61.6923 65.9015 62.1659 66.3098 62.5629C66.7182 62.96 67.2008 63.2727 67.73 63.4833C74.0567 65.9966 78 69.8966 78 73.6666C78 79.8199 67.34 86.6666 52 86.6666C36.66 86.6666 26 79.8199 26 73.6666C26 69.8966 29.9433 65.9966 36.27 63.4833C37.3388 63.058 38.1949 62.2257 38.65 61.1692C39.1051 60.1127 39.1219 58.9188 38.6967 57.8499C38.2714 56.7811 37.439 55.925 36.3826 55.4699C35.3261 55.0148 34.1322 54.9981 33.0633 55.4233C23.2267 59.3233 17.3333 66.1266 17.3333 73.6666C17.3333 85.7999 32.5433 95.3333 52 95.3333C71.4567 95.3333 86.6667 85.7999 86.6667 73.6666C86.6667 66.1266 80.7733 59.3233 70.9367 55.4233ZM47.6667 42.7266V73.6666C47.6667 74.8159 48.1232 75.9181 48.9359 76.7308C49.7485 77.5434 50.8507 77.9999 52 77.9999C53.1493 77.9999 54.2515 77.5434 55.0641 76.7308C55.8768 75.9181 56.3333 74.8159 56.3333 73.6666V42.7266C60.4182 41.6719 63.9782 39.1636 66.3459 35.6719C68.7137 32.1802 69.7268 27.9448 69.1952 23.7596C68.6636 19.5744 66.6239 15.7268 63.4583 12.9379C60.2928 10.149 56.2188 8.61035 52 8.61035C47.7812 8.61035 43.7072 10.149 40.5417 12.9379C37.3761 15.7268 35.3364 19.5744 34.8048 23.7596C34.2732 27.9448 35.2863 32.1802 37.6541 35.6719C40.0218 39.1636 43.5818 41.6719 47.6667 42.7266ZM52 17.3333C53.7141 17.3333 55.3897 17.8416 56.8149 18.7939C58.2402 19.7462 59.351 21.0997 60.007 22.6834C60.6629 24.267 60.8345 26.0096 60.5001 27.6907C60.1657 29.3719 59.3403 30.9162 58.1283 32.1282C56.9162 33.3403 55.372 34.1657 53.6908 34.5001C52.0096 34.8345 50.267 34.6629 48.6834 34.0069C47.0998 33.3509 45.7462 32.2401 44.7939 30.8149C43.8416 29.3897 43.3333 27.7141 43.3333 25.9999C43.3333 23.7014 44.2464 21.497 45.8717 19.8717C47.4971 18.2464 49.7015 17.3333 52 17.3333Z" fill="#21D7C1"/>
</svg>
