<svg width="24" height="24" viewBox="0 0 24 24" fill="none" xmlns="http://www.w3.org/2000/svg">
<path fill-rule="evenodd" clip-rule="evenodd" d="M6.60989 10.83L1.38989 5.64001L5.63989 1.39001L7.39989 3.16001L4.92989 5.64001L5.99989 6.70001L8.45989 4.22001L9.87989 5.64001L8.45989 7.05001L9.45989 8.05001L6.60989 10.83ZM2.99989 21V17.25L14.0599 6.18001L17.8099 9.93001L6.74989 21H2.99989ZM18.3599 22.61L22.6099 18.36L20.8399 16.6L19.4199 18L18.3599 17L19.8199 15.58L18.3999 14.16L15.9299 16.64L14.9299 15.64L13.1599 17.41L18.3599 22.61ZM20.7099 5.59001C21.0999 6.00001 21.0999 6.61001 20.7099 7.00001L18.8699 8.87001L15.1199 5.12001L16.9599 3.29001C17.3499 2.90001 17.9999 2.90001 18.3699 3.29001L20.7099 5.59001Z" fill="white"/>
</svg>
