<svg width="104" height="104" viewBox="0 0 104 104" fill="none" xmlns="http://www.w3.org/2000/svg">
<path d="M39 52H30.3334C29.1841 52 28.0819 52.4565 27.2692 53.2692C26.4566 54.0818 26 55.184 26 56.3333C26 57.4826 26.4566 58.5848 27.2692 59.3974C28.0819 60.2101 29.1841 60.6666 30.3334 60.6666H39C40.1493 60.6666 41.2515 60.2101 42.0642 59.3974C42.8768 58.5848 43.3334 57.4826 43.3334 56.3333C43.3334 55.184 42.8768 54.0818 42.0642 53.2692C41.2515 52.4565 40.1493 52 39 52ZM34.6667 43.3333H52C53.1493 43.3333 54.2515 42.8768 55.0642 42.0641C55.8768 41.2514 56.3334 40.1492 56.3334 39C56.3334 37.8507 55.8768 36.7485 55.0642 35.9358C54.2515 35.1232 53.1493 34.6666 52 34.6666H34.6667C33.5174 34.6666 32.4152 35.1232 31.6026 35.9358C30.7899 36.7485 30.3334 37.8507 30.3334 39C30.3334 40.1492 30.7899 41.2514 31.6026 42.0641C32.4152 42.8768 33.5174 43.3333 34.6667 43.3333ZM39 69.3333H30.3334C29.1841 69.3333 28.0819 69.7899 27.2692 70.6025C26.4566 71.4152 26 72.5174 26 73.6666C26 74.8159 26.4566 75.9181 27.2692 76.7308C28.0819 77.5434 29.1841 78 30.3334 78H39C40.1493 78 41.2515 77.5434 42.0642 76.7308C42.8768 75.9181 43.3334 74.8159 43.3334 73.6666C43.3334 72.5174 42.8768 71.4152 42.0642 70.6025C41.2515 69.7899 40.1493 69.3333 39 69.3333ZM91 52H78V13C78.0031 12.2364 77.8043 11.4856 77.4238 10.8235C77.0433 10.1615 76.4946 9.61176 75.8334 9.22997C75.1746 8.84964 74.4274 8.64941 73.6667 8.64941C72.906 8.64941 72.1588 8.84964 71.5 9.22997L58.5 16.6833L45.5 9.22997C44.8413 8.84964 44.094 8.64941 43.3334 8.64941C42.5727 8.64941 41.8254 8.84964 41.1667 9.22997L28.1667 16.6833L15.1667 9.22997C14.5079 8.84964 13.7607 8.64941 13 8.64941C12.2394 8.64941 11.4921 8.84964 10.8334 9.22997C10.1721 9.61176 9.62341 10.1615 9.24293 10.8235C8.86245 11.4856 8.66366 12.2364 8.66669 13V82.3333C8.66669 85.7811 10.0363 89.0877 12.4743 91.5257C14.9123 93.9637 18.2189 95.3333 21.6667 95.3333H82.3334C85.7812 95.3333 89.0878 93.9637 91.5257 91.5257C93.9637 89.0877 95.3334 85.7811 95.3334 82.3333V56.3333C95.3334 55.184 94.8768 54.0818 94.0642 53.2692C93.2515 52.4565 92.1493 52 91 52ZM21.6667 86.6666C20.5174 86.6666 19.4152 86.2101 18.6026 85.3974C17.7899 84.5848 17.3334 83.4826 17.3334 82.3333V20.4966L26 25.4366C26.6688 25.786 27.4122 25.9684 28.1667 25.9684C28.9212 25.9684 29.6646 25.786 30.3334 25.4366L43.3334 17.9833L56.3334 25.4366C57.0022 25.786 57.7455 25.9684 58.5 25.9684C59.2546 25.9684 59.9979 25.786 60.6667 25.4366L69.3334 20.4966V82.3333C69.3451 83.8116 69.6089 85.2771 70.1134 86.6666H21.6667ZM86.6667 82.3333C86.6667 83.4826 86.2102 84.5848 85.3975 85.3974C84.5848 86.2101 83.4826 86.6666 82.3334 86.6666C81.1841 86.6666 80.0819 86.2101 79.2692 85.3974C78.4566 84.5848 78 83.4826 78 82.3333V60.6666H86.6667V82.3333ZM58.76 70.07C58.5185 69.906 58.2562 69.7748 57.98 69.68C57.722 69.548 57.4437 69.4602 57.1567 69.42C56.4605 69.2806 55.7408 69.3144 55.0607 69.5184C54.3807 69.7224 53.7612 70.0904 53.2567 70.59C52.4648 71.4204 52.016 72.5193 52 73.6666C51.9931 74.23 52.0962 74.7894 52.3034 75.3133C52.5389 75.8399 52.8612 76.3233 53.2567 76.7433C53.6779 77.1261 54.1616 77.4339 54.6867 77.6533C55.2054 77.8826 55.7663 78.001 56.3334 78.001C56.9005 78.001 57.4613 77.8826 57.98 77.6533C58.5052 77.4339 58.9888 77.1261 59.41 76.7433C59.8116 76.3384 60.1294 75.8582 60.345 75.3302C60.5607 74.8023 60.67 74.2369 60.6667 73.6666C60.6507 72.5193 60.2019 71.4204 59.41 70.59C59.2041 70.4036 58.987 70.23 58.76 70.07ZM59.3667 53.2566C58.8607 52.7639 58.2419 52.4023 57.5643 52.2033C56.8866 52.0043 56.1706 51.974 55.4785 52.115C54.7864 52.2559 54.1393 52.5639 53.5935 53.0122C53.0476 53.4604 52.6196 54.0352 52.3467 54.6866C52.077 55.3431 51.9727 56.0558 52.0429 56.7621C52.1131 57.4683 52.3557 58.1465 52.7494 58.7371C53.1431 59.3276 53.6758 59.8124 54.3007 60.1488C54.9256 60.4853 55.6236 60.6631 56.3334 60.6666C57.4826 60.6666 58.5848 60.2101 59.3975 59.3974C60.2101 58.5848 60.6667 57.4826 60.6667 56.3333C60.6598 55.767 60.5421 55.2076 60.32 54.6866C60.1113 54.1457 59.7857 53.6574 59.3667 53.2566Z" fill="#21D7C1"/>
</svg>
