<svg width="104" height="104" viewBox="0 0 104 104" fill="none" xmlns="http://www.w3.org/2000/svg">
<path d="M32.5001 26C31.2145 26 29.9578 26.3812 28.8889 27.0955C27.8199 27.8097 26.9868 28.8249 26.4948 30.0126C26.0029 31.2003 25.8742 32.5072 26.125 33.7681C26.3758 35.029 26.9948 36.1872 27.9039 37.0962C28.8129 38.0053 29.9711 38.6243 31.232 38.8751C32.4929 39.1259 33.7998 38.9972 34.9875 38.5052C36.1752 38.0133 37.1904 37.1802 37.9046 36.1112C38.6188 35.0423 39.0001 33.7856 39.0001 32.5C39.0001 30.7761 38.3152 29.1228 37.0963 27.9038C35.8773 26.6848 34.224 26 32.5001 26ZM91.5201 46.41L55.0767 9.92336C54.6718 9.52175 54.1916 9.204 53.6637 8.98836C53.1357 8.77271 52.5704 8.6634 52.0001 8.6667H13.0001C11.8508 8.6667 10.7486 9.12324 9.93593 9.9359C9.12328 10.7486 8.66673 11.8508 8.66673 13V52C8.66343 52.5703 8.77274 53.1357 8.98839 53.6636C9.20403 54.1916 9.52178 54.6718 9.9234 55.0767L46.4101 91.52C48.8476 93.9545 52.1517 95.3219 55.5967 95.3219C59.0417 95.3219 62.3459 93.9545 64.7834 91.52L91.5201 65C93.9545 62.5625 95.322 59.2584 95.322 55.8134C95.322 52.3684 93.9545 49.0642 91.5201 46.6267V46.41ZM85.4101 58.63L58.6301 85.3667C57.8182 86.1738 56.7199 86.6268 55.5751 86.6268C54.4303 86.6268 53.332 86.1738 52.5201 85.3667L17.3334 50.2234V17.3334H50.2234L85.4101 52.52C85.8117 52.9249 86.1294 53.4051 86.3451 53.9331C86.5607 54.4611 86.67 55.0264 86.6667 55.5967C86.6619 56.7335 86.2106 57.8229 85.4101 58.63Z" fill="#21D7C1"/>
</svg>
