<svg width="104" height="104" viewBox="0 0 104 104" fill="none" xmlns="http://www.w3.org/2000/svg">
<path d="M52.0002 8.66663C43.5956 8.68259 35.377 11.1423 28.3455 15.7462C21.314 20.35 15.773 26.8993 12.3976 34.5963C9.02211 42.2933 7.95779 50.8058 9.33428 59.0969C10.7108 67.388 14.4686 75.0999 20.1502 81.2933C24.208 85.6918 29.1329 89.2022 34.6146 91.6032C40.0962 94.0042 46.0158 95.2437 52.0002 95.2437C57.9846 95.2437 63.9041 94.0042 69.3858 91.6032C74.8674 89.2022 79.7923 85.6918 83.8502 81.2933C89.5317 75.0999 93.2896 67.388 94.6661 59.0969C96.0425 50.8058 94.9782 42.2933 91.6028 34.5963C88.2273 26.8993 82.6863 20.35 75.6548 15.7462C68.6233 11.1423 60.4048 8.68259 52.0002 8.66663ZM52.0002 86.6666C43.0235 86.653 34.4021 83.1578 27.9502 76.9166C29.909 72.1479 33.2413 68.0693 37.5236 65.1988C41.8059 62.3284 46.8448 60.7958 52.0002 60.7958C57.1555 60.7958 62.1944 62.3284 66.4767 65.1988C70.759 68.0693 74.0913 72.1479 76.0502 76.9166C69.5982 83.1578 60.9768 86.653 52.0002 86.6666ZM43.3335 43.3333C43.3335 41.6192 43.8418 39.9436 44.7941 38.5184C45.7464 37.0931 47.0999 35.9823 48.6836 35.3263C50.2672 34.6704 52.0098 34.4987 53.6909 34.8332C55.3721 35.1676 56.9164 35.993 58.1284 37.205C59.3405 38.4171 60.1659 39.9613 60.5003 41.6425C60.8347 43.3237 60.6631 45.0663 60.0071 46.6499C59.3512 48.2335 58.2403 49.5871 56.8151 50.5394C55.3899 51.4917 53.7143 52 52.0002 52C49.7016 52 47.4972 51.0869 45.8719 49.4616C44.2466 47.8362 43.3335 45.6318 43.3335 43.3333ZM81.9435 69.3333C78.0718 62.7109 72.1129 57.5597 65.0002 54.6866C67.2066 52.1848 68.6442 49.0995 69.1405 45.8009C69.6369 42.5022 69.1709 39.1304 67.7984 36.0901C66.426 33.0498 64.2054 30.47 61.4031 28.6605C58.6008 26.8509 55.3359 25.8884 52.0002 25.8884C48.6644 25.8884 45.3995 26.8509 42.5972 28.6605C39.795 30.47 37.5744 33.0498 36.2019 36.0901C34.8295 39.1304 34.3634 42.5022 34.8598 45.8009C35.3561 49.0995 36.7938 52.1848 39.0002 54.6866C31.8874 57.5597 25.9285 62.7109 22.0568 69.3333C18.9713 64.0774 17.341 58.0946 17.3335 52C17.3335 42.8058 20.9859 33.9882 27.4871 27.4869C33.9884 20.9857 42.806 17.3333 52.0002 17.3333C61.1943 17.3333 70.0119 20.9857 76.5132 27.4869C83.0145 33.9882 86.6668 42.8058 86.6668 52C86.6594 58.0946 85.0291 64.0774 81.9435 69.3333Z" fill="#21D7C1"/>
</svg>
