<svg width="24" height="24" viewBox="0 0 24 24" fill="none" xmlns="http://www.w3.org/2000/svg">
<path fill-rule="evenodd" clip-rule="evenodd" d="M2 12C2 6.5 6.47 2 12 2C14.6522 2 17.1957 3.05357 19.0711 4.92893C20.9464 6.8043 22 9.34784 22 12C22 17.5228 17.5228 22 12 22C9.34784 22 6.8043 20.9464 4.92893 19.0711C3.05357 17.1957 2 14.6522 2 12ZM13.91 8C13.5 6.57 12.83 5.23 12 4.03C11.17 5.23 10.5 6.57 10.09 8H13.91ZM8 8H5.08C6.03 6.34 7.57 5.06 9.4 4.44C8.8 5.55 8.35 6.75 8 8ZM14.5 12C14.5 12.68 14.43 13.34 14.34 14H9.66C9.56 13.34 9.5 12.68 9.5 12C9.5 11.32 9.56 10.65 9.66 10H14.34C14.43 10.65 14.5 11.32 14.5 12ZM16.5 12C16.5 12.68 16.44 13.34 16.36 14H19.74C19.9 13.36 20 12.69 20 12C20 11.31 19.9 10.64 19.74 10H16.36C16.44 10.66 16.5 11.32 16.5 12ZM15.97 16C15.65 17.25 15.19 18.45 14.59 19.56C16.43 18.93 17.96 17.65 18.92 16H15.97ZM10.09 16C10.5 17.43 11.17 18.76 12 19.96C12.83 18.76 13.5 17.43 13.91 16H10.09ZM8 16H5.08C6.03 17.65 7.57 18.93 9.4 19.56C8.8 18.45 8.35 17.25 8 16ZM4.26 14C4.1 13.36 4 12.69 4 12C4 11.31 4.1 10.64 4.26 10H7.64C7.56 10.66 7.5 11.32 7.5 12C7.5 12.68 7.56 13.34 7.64 14H4.26ZM18.92 8H15.97C15.65 6.75 15.19 5.55 14.59 4.44C16.43 5.07 17.96 6.34 18.92 8Z" fill="#333333"/>
</svg>
